<svg viewBox="0 0 702 33" fill="black" xmlns="http://www.w3.org/2000/svg">
<path d="M0.5 31.5H701.5V32.5H0.5V31.5Z" />
<path d="M701.5 22V32H700.5V22H701.5Z" />
<path d="M643.167 26.832V31.832H642.167V26.832H643.167Z" />
<path d="M584.833 21.832V31.832H583.833V21.832H584.833Z" />
<path d="M526.5 26.832V31.832H525.5V26.832H526.5Z" />
<path d="M468.167 21.832V31.832H467.167V21.832H468.167Z" />
<path d="M409.833 26.832V31.832H408.833V26.832H409.833Z" />
<path d="M351.5 21.8V31.8H350.5V21.8H351.5Z" />
<path d="M293.167 26.832V31.832H292.167V26.832H293.167Z" />
<path d="M234.833 21.832V31.832H233.833V21.832H234.833Z" />
<path d="M176.5 26.832V31.832H175.5V26.832H176.5Z" />
<path d="M118.167 21.832V31.832H117.167V21.832H118.167Z" />
<path d="M59.8333 26.832V31.832H58.8333V26.832H59.8333Z" />
<path d="M1.5 22V32H0.5V22H1.5Z" />
<path d="M672.333 27V32H671.333V27H672.333Z" />
<path d="M614 27V32H613V27H614Z" />
<path d="M555.667 27V32H554.667V27H555.667Z" />
<path d="M497.333 27V32H496.333V27H497.333Z" />
<path d="M439 27V32H438V27H439Z" />
<path d="M380.667 27V32H379.667V27H380.667Z" />
<path d="M322.333 27V32H321.333V27H322.333Z" />
<path d="M264 27V32H263V27H264Z" />
<path d="M205.667 27V32H204.667V27H205.667Z" />
<path d="M147.333 27V32H146.333V27H147.333Z" />
<path d="M89 27V32H88V27H89Z" />
<path d="M30.6667 27V32H29.6667V27H30.6667Z" />
<path d="M675.932 14H669.97V13.0259L673.009 8.99756C673.468 8.37744 673.786 7.86963 673.961 7.47412C674.142 7.07373 674.232 6.65137 674.232 6.20703C674.232 5.64063 674.101 5.18164 673.837 4.83008C673.573 4.47852 673.227 4.30273 672.797 4.30273C672.255 4.30273 671.835 4.49072 671.537 4.8667C671.244 5.23779 671.098 5.7749 671.098 6.47803H669.801C669.801 5.49658 670.07 4.70313 670.607 4.09766C671.144 3.49219 671.874 3.18945 672.797 3.18945C673.646 3.18945 674.315 3.45068 674.804 3.97314C675.292 4.49072 675.536 5.18164 675.536 6.0459C675.536 7.10059 674.987 8.34814 673.888 9.78857L671.515 12.894H675.932V14ZM683.08 9.45166C683.08 11.0239 682.851 12.2007 682.392 12.9819C681.933 13.7583 681.212 14.1465 680.231 14.1465C679.279 14.1465 678.568 13.7729 678.1 13.0259C677.631 12.2788 677.387 11.1558 677.367 9.65674V7.82568C677.367 6.26807 677.597 5.10596 678.056 4.33936C678.52 3.57275 679.24 3.18945 680.216 3.18945C681.178 3.18945 681.889 3.55322 682.348 4.28076C682.812 5.0083 683.056 6.10938 683.08 7.58398V9.45166ZM681.784 7.59863C681.784 6.4707 681.659 5.64063 681.41 5.1084C681.161 4.57129 680.763 4.30273 680.216 4.30273C679.684 4.30273 679.293 4.56641 679.044 5.09375C678.795 5.61621 678.666 6.40723 678.656 7.4668V9.66406C678.656 10.7871 678.786 11.6318 679.044 12.1982C679.303 12.7598 679.699 13.0405 680.231 13.0405C680.758 13.0405 681.146 12.7744 681.396 12.2422C681.645 11.71 681.774 10.897 681.784 9.80322V7.59863ZM686.449 8.00879H687.277C687.809 8.00879 688.219 7.84521 688.507 7.51807C688.795 7.19092 688.939 6.74414 688.939 6.17773C688.939 4.92773 688.456 4.30273 687.489 4.30273C687.025 4.30273 686.662 4.47119 686.398 4.80811C686.134 5.14502 686.002 5.58691 686.002 6.13379H684.713C684.713 5.2793 684.972 4.57617 685.49 4.02441C686.012 3.46777 686.679 3.18945 687.489 3.18945C688.329 3.18945 688.996 3.45312 689.489 3.98047C689.982 4.50293 690.229 5.24512 690.229 6.20703C690.229 6.7002 690.099 7.16162 689.84 7.59131C689.586 8.01611 689.254 8.32861 688.844 8.52881C689.85 8.8999 690.353 9.73242 690.353 11.0264C690.353 11.9785 690.087 12.7378 689.555 13.3042C689.027 13.8657 688.336 14.1465 687.482 14.1465C686.637 14.1465 685.954 13.8804 685.431 13.3481C684.914 12.811 684.655 12.0908 684.655 11.1875H685.951C685.951 11.7539 686.088 12.2056 686.361 12.5425C686.635 12.8745 687.008 13.0405 687.482 13.0405C687.965 13.0405 688.349 12.877 688.632 12.5498C688.92 12.2227 689.064 11.7246 689.064 11.0557C689.064 9.76172 688.451 9.11475 687.226 9.11475H686.449V8.00879ZM697.113 10.4185H698.3V11.5244H697.113V14H695.817V11.5244H691.789V10.7261L695.751 3.33594H697.113V10.4185ZM693.224 10.4185H695.817V5.3501L693.224 10.4185Z" />
<path d="M575.042 14H569.08V13.0259L572.119 8.99756C572.578 8.37744 572.896 7.86963 573.072 7.47412C573.252 7.07373 573.343 6.65137 573.343 6.20703C573.343 5.64063 573.211 5.18164 572.947 4.83008C572.683 4.47852 572.337 4.30273 571.907 4.30273C571.365 4.30273 570.945 4.49072 570.647 4.8667C570.354 5.23779 570.208 5.7749 570.208 6.47803H568.911C568.911 5.49658 569.18 4.70313 569.717 4.09766C570.254 3.49219 570.984 3.18945 571.907 3.18945C572.757 3.18945 573.426 3.45068 573.914 3.97314C574.402 4.49072 574.646 5.18164 574.646 6.0459C574.646 7.10059 574.097 8.34814 572.998 9.78857L570.625 12.894H575.042V14ZM582.19 9.45166C582.19 11.0239 581.961 12.2007 581.502 12.9819C581.043 13.7583 580.323 14.1465 579.341 14.1465C578.389 14.1465 577.678 13.7729 577.21 13.0259C576.741 12.2788 576.497 11.1558 576.477 9.65674V7.82568C576.477 6.26807 576.707 5.10596 577.166 4.33936C577.63 3.57275 578.35 3.18945 579.326 3.18945C580.288 3.18945 580.999 3.55322 581.458 4.28076C581.922 5.0083 582.166 6.10938 582.19 7.58398V9.45166ZM580.894 7.59863C580.894 6.4707 580.769 5.64063 580.52 5.1084C580.271 4.57129 579.873 4.30273 579.326 4.30273C578.794 4.30273 578.404 4.56641 578.155 5.09375C577.906 5.61621 577.776 6.40723 577.766 7.4668V9.66406C577.766 10.7871 577.896 11.6318 578.155 12.1982C578.413 12.7598 578.809 13.0405 579.341 13.0405C579.868 13.0405 580.257 12.7744 580.506 12.2422C580.755 11.71 580.884 10.897 580.894 9.80322V7.59863ZM585.559 8.00879H586.387C586.919 8.00879 587.329 7.84521 587.617 7.51807C587.906 7.19092 588.05 6.74414 588.05 6.17773C588.05 4.92773 587.566 4.30273 586.599 4.30273C586.135 4.30273 585.772 4.47119 585.508 4.80811C585.244 5.14502 585.113 5.58691 585.113 6.13379H583.823C583.823 5.2793 584.082 4.57617 584.6 4.02441C585.122 3.46777 585.789 3.18945 586.599 3.18945C587.439 3.18945 588.106 3.45312 588.599 3.98047C589.092 4.50293 589.339 5.24512 589.339 6.20703C589.339 6.7002 589.209 7.16162 588.95 7.59131C588.697 8.01611 588.365 8.32861 587.954 8.52881C588.96 8.8999 589.463 9.73242 589.463 11.0264C589.463 11.9785 589.197 12.7378 588.665 13.3042C588.137 13.8657 587.447 14.1465 586.592 14.1465C585.747 14.1465 585.064 13.8804 584.541 13.3481C584.024 12.811 583.765 12.0908 583.765 11.1875H585.061C585.061 11.7539 585.198 12.2056 585.471 12.5425C585.745 12.8745 586.118 13.0405 586.592 13.0405C587.075 13.0405 587.459 12.877 587.742 12.5498C588.03 12.2227 588.174 11.7246 588.174 11.0557C588.174 9.76172 587.561 9.11475 586.336 9.11475H585.559V8.00879ZM597.014 9.45166C597.014 11.0239 596.785 12.2007 596.326 12.9819C595.867 13.7583 595.147 14.1465 594.165 14.1465C593.213 14.1465 592.503 13.7729 592.034 13.0259C591.565 12.2788 591.321 11.1558 591.302 9.65674V7.82568C591.302 6.26807 591.531 5.10596 591.99 4.33936C592.454 3.57275 593.174 3.18945 594.151 3.18945C595.113 3.18945 595.823 3.55322 596.282 4.28076C596.746 5.0083 596.99 6.10938 597.014 7.58398V9.45166ZM595.718 7.59863C595.718 6.4707 595.594 5.64063 595.344 5.1084C595.095 4.57129 594.698 4.30273 594.151 4.30273C593.618 4.30273 593.228 4.56641 592.979 5.09375C592.73 5.61621 592.6 6.40723 592.591 7.4668V9.66406C592.591 10.7871 592.72 11.6318 592.979 12.1982C593.238 12.7598 593.633 13.0405 594.165 13.0405C594.693 13.0405 595.081 12.7744 595.33 12.2422C595.579 11.71 595.708 10.897 595.718 9.80322V7.59863Z" />
<path d="M460.15 14H454.188V13.0259L457.228 8.99756C457.687 8.37744 458.004 7.86963 458.18 7.47412C458.36 7.07373 458.451 6.65137 458.451 6.20703C458.451 5.64063 458.319 5.18164 458.055 4.83008C457.792 4.47852 457.445 4.30273 457.015 4.30273C456.473 4.30273 456.053 4.49072 455.755 4.8667C455.462 5.23779 455.316 5.7749 455.316 6.47803H454.02C454.02 5.49658 454.288 4.70313 454.825 4.09766C455.362 3.49219 456.092 3.18945 457.015 3.18945C457.865 3.18945 458.534 3.45068 459.022 3.97314C459.51 4.49072 459.754 5.18164 459.754 6.0459C459.754 7.10059 459.205 8.34814 458.106 9.78857L455.733 12.894H460.15V14ZM467.298 9.45166C467.298 11.0239 467.069 12.2007 466.61 12.9819C466.151 13.7583 465.431 14.1465 464.449 14.1465C463.497 14.1465 462.787 13.7729 462.318 13.0259C461.849 12.2788 461.605 11.1558 461.585 9.65674V7.82568C461.585 6.26807 461.815 5.10596 462.274 4.33936C462.738 3.57275 463.458 3.18945 464.435 3.18945C465.396 3.18945 466.107 3.55322 466.566 4.28076C467.03 5.0083 467.274 6.10938 467.298 7.58398V9.45166ZM466.002 7.59863C466.002 6.4707 465.877 5.64063 465.628 5.1084C465.379 4.57129 464.981 4.30273 464.435 4.30273C463.902 4.30273 463.512 4.56641 463.263 5.09375C463.014 5.61621 462.884 6.40723 462.875 7.4668V9.66406C462.875 10.7871 463.004 11.6318 463.263 12.1982C463.521 12.7598 463.917 13.0405 464.449 13.0405C464.977 13.0405 465.365 12.7744 465.614 12.2422C465.863 11.71 465.992 10.897 466.002 9.80322V7.59863ZM474.974 14H469.012V13.0259L472.052 8.99756C472.511 8.37744 472.828 7.86963 473.004 7.47412C473.185 7.07373 473.275 6.65137 473.275 6.20703C473.275 5.64063 473.143 5.18164 472.879 4.83008C472.616 4.47852 472.269 4.30273 471.839 4.30273C471.297 4.30273 470.877 4.49072 470.58 4.8667C470.287 5.23779 470.14 5.7749 470.14 6.47803H468.844C468.844 5.49658 469.112 4.70313 469.649 4.09766C470.187 3.49219 470.917 3.18945 471.839 3.18945C472.689 3.18945 473.358 3.45068 473.846 3.97314C474.334 4.49072 474.579 5.18164 474.579 6.0459C474.579 7.10059 474.029 8.34814 472.931 9.78857L470.558 12.894H474.974V14ZM480.936 3.32861V4.47852H480.724C479.859 4.49805 479.183 4.79102 478.695 5.35742C478.207 5.91895 477.926 6.76611 477.853 7.89893C478.326 7.30322 478.932 7.00537 479.669 7.00537C480.455 7.00537 481.078 7.33008 481.537 7.97949C482 8.62402 482.232 9.47119 482.232 10.521C482.232 11.6392 481.976 12.5229 481.463 13.1724C480.956 13.8218 480.272 14.1465 479.413 14.1465C478.548 14.1465 477.853 13.7632 477.325 12.9966C476.798 12.23 476.534 11.2119 476.534 9.94238V9.42236C476.534 7.95752 476.693 6.79053 477.01 5.92139C477.328 5.05225 477.794 4.40771 478.409 3.98779C479.029 3.56299 479.798 3.34326 480.716 3.32861H480.936ZM479.449 8.1333C479.098 8.1333 478.773 8.26758 478.475 8.53613C478.177 8.80469 477.962 9.14648 477.831 9.56152V10.0962C477.831 10.9604 477.982 11.666 478.285 12.2129C478.592 12.7549 478.968 13.0259 479.413 13.0259C479.896 13.0259 480.274 12.8037 480.548 12.3594C480.821 11.9102 480.958 11.3193 480.958 10.5869C480.958 9.86426 480.821 9.27588 480.548 8.82178C480.274 8.36279 479.908 8.1333 479.449 8.1333Z" />
<path d="M343.447 14H337.485V13.0259L340.525 8.99756C340.984 8.37744 341.301 7.86963 341.477 7.47412C341.657 7.07373 341.748 6.65137 341.748 6.20703C341.748 5.64063 341.616 5.18164 341.352 4.83008C341.089 4.47852 340.742 4.30273 340.312 4.30273C339.77 4.30273 339.35 4.49072 339.052 4.8667C338.76 5.23779 338.613 5.7749 338.613 6.47803H337.317C337.317 5.49658 337.585 4.70313 338.122 4.09766C338.659 3.49219 339.389 3.18945 340.312 3.18945C341.162 3.18945 341.831 3.45068 342.319 3.97314C342.807 4.49072 343.052 5.18164 343.052 6.0459C343.052 7.10059 342.502 8.34814 341.404 9.78857L339.031 12.894H343.447V14ZM350.595 9.45166C350.595 11.0239 350.366 12.2007 349.907 12.9819C349.448 13.7583 348.728 14.1465 347.746 14.1465C346.794 14.1465 346.084 13.7729 345.615 13.0259C345.146 12.2788 344.902 11.1558 344.883 9.65674V7.82568C344.883 6.26807 345.112 5.10596 345.571 4.33936C346.035 3.57275 346.755 3.18945 347.732 3.18945C348.694 3.18945 349.404 3.55322 349.863 4.28076C350.327 5.0083 350.571 6.10938 350.595 7.58398V9.45166ZM349.299 7.59863C349.299 6.4707 349.175 5.64063 348.926 5.1084C348.677 4.57129 348.279 4.30273 347.732 4.30273C347.199 4.30273 346.809 4.56641 346.56 5.09375C346.311 5.61621 346.181 6.40723 346.172 7.4668V9.66406C346.172 10.7871 346.301 11.6318 346.56 12.1982C346.819 12.7598 347.214 13.0405 347.746 13.0405C348.274 13.0405 348.662 12.7744 348.911 12.2422C349.16 11.71 349.289 10.897 349.299 9.80322V7.59863ZM358.271 14H352.309V13.0259L355.349 8.99756C355.808 8.37744 356.125 7.86963 356.301 7.47412C356.482 7.07373 356.572 6.65137 356.572 6.20703C356.572 5.64063 356.44 5.18164 356.177 4.83008C355.913 4.47852 355.566 4.30273 355.136 4.30273C354.594 4.30273 354.175 4.49072 353.877 4.8667C353.584 5.23779 353.437 5.7749 353.437 6.47803H352.141C352.141 5.49658 352.409 4.70313 352.947 4.09766C353.484 3.49219 354.214 3.18945 355.136 3.18945C355.986 3.18945 356.655 3.45068 357.143 3.97314C357.632 4.49072 357.876 5.18164 357.876 6.0459C357.876 7.10059 357.326 8.34814 356.228 9.78857L353.855 12.894H358.271V14ZM365.683 14H359.721V13.0259L362.761 8.99756C363.22 8.37744 363.537 7.86963 363.713 7.47412C363.894 7.07373 363.984 6.65137 363.984 6.20703C363.984 5.64063 363.852 5.18164 363.589 4.83008C363.325 4.47852 362.978 4.30273 362.549 4.30273C362.007 4.30273 361.587 4.49072 361.289 4.8667C360.996 5.23779 360.849 5.7749 360.849 6.47803H359.553C359.553 5.49658 359.822 4.70313 360.359 4.09766C360.896 3.49219 361.626 3.18945 362.549 3.18945C363.398 3.18945 364.067 3.45068 364.555 3.97314C365.044 4.49072 365.288 5.18164 365.288 6.0459C365.288 7.10059 364.739 8.34814 363.64 9.78857L361.267 12.894H365.683V14Z" />
<path d="M225.364 14H219.402V13.0259L222.442 8.99756C222.901 8.37744 223.218 7.86963 223.394 7.47412C223.574 7.07373 223.665 6.65137 223.665 6.20703C223.665 5.64063 223.533 5.18164 223.269 4.83008C223.006 4.47852 222.659 4.30273 222.229 4.30273C221.687 4.30273 221.267 4.49072 220.969 4.8667C220.677 5.23779 220.53 5.7749 220.53 6.47803H219.234C219.234 5.49658 219.502 4.70313 220.039 4.09766C220.576 3.49219 221.306 3.18945 222.229 3.18945C223.079 3.18945 223.748 3.45068 224.236 3.97314C224.724 4.49072 224.969 5.18164 224.969 6.0459C224.969 7.10059 224.419 8.34814 223.321 9.78857L220.948 12.894H225.364V14ZM232.512 9.45166C232.512 11.0239 232.283 12.2007 231.824 12.9819C231.365 13.7583 230.645 14.1465 229.663 14.1465C228.711 14.1465 228.001 13.7729 227.532 13.0259C227.063 12.2788 226.819 11.1558 226.8 9.65674V7.82568C226.8 6.26807 227.029 5.10596 227.488 4.33936C227.952 3.57275 228.672 3.18945 229.649 3.18945C230.611 3.18945 231.321 3.55322 231.78 4.28076C232.244 5.0083 232.488 6.10938 232.512 7.58398V9.45166ZM231.216 7.59863C231.216 6.4707 231.092 5.64063 230.843 5.1084C230.594 4.57129 230.196 4.30273 229.649 4.30273C229.116 4.30273 228.726 4.56641 228.477 5.09375C228.228 5.61621 228.098 6.40723 228.089 7.4668V9.66406C228.089 10.7871 228.218 11.6318 228.477 12.1982C228.736 12.7598 229.131 13.0405 229.663 13.0405C230.191 13.0405 230.579 12.7744 230.828 12.2422C231.077 11.71 231.206 10.897 231.216 9.80322V7.59863ZM238.086 14H236.782V4.96924L234.541 5.97266V4.74219L237.881 3.28467H238.086V14ZM247.124 6.11914C247.124 6.65137 247.005 7.125 246.765 7.54004C246.531 7.95508 246.214 8.27979 245.813 8.51416C246.287 8.7583 246.658 9.10986 246.927 9.56885C247.195 10.0229 247.329 10.5405 247.329 11.1216C247.329 12.0396 247.068 12.7744 246.546 13.3262C246.028 13.873 245.34 14.1465 244.48 14.1465C243.621 14.1465 242.93 13.873 242.407 13.3262C241.89 12.7744 241.631 12.0396 241.631 11.1216C241.631 10.5356 241.763 10.0132 242.027 9.5542C242.295 9.09033 242.659 8.74121 243.118 8.50684C242.718 8.27246 242.403 7.9502 242.173 7.54004C241.944 7.125 241.829 6.65137 241.829 6.11914C241.829 5.2207 242.071 4.50781 242.554 3.98047C243.042 3.45312 243.684 3.18945 244.48 3.18945C245.271 3.18945 245.908 3.45068 246.392 3.97314C246.88 4.49561 247.124 5.21094 247.124 6.11914ZM246.033 11.0923C246.033 10.4819 245.889 9.99365 245.601 9.62744C245.313 9.25635 244.934 9.0708 244.466 9.0708C243.987 9.0708 243.609 9.25635 243.33 9.62744C243.057 9.99854 242.92 10.4868 242.92 11.0923C242.92 11.7075 243.054 12.186 243.323 12.5278C243.596 12.8696 243.982 13.0405 244.48 13.0405C244.978 13.0405 245.362 12.8696 245.63 12.5278C245.899 12.186 246.033 11.7075 246.033 11.0923ZM245.835 6.14111C245.835 5.59912 245.708 5.15723 245.454 4.81543C245.2 4.47363 244.876 4.30273 244.48 4.30273C244.065 4.30273 243.736 4.47119 243.491 4.80811C243.247 5.14502 243.125 5.58936 243.125 6.14111C243.125 6.69775 243.25 7.13965 243.499 7.4668C243.748 7.79395 244.075 7.95752 244.48 7.95752C244.895 7.95752 245.225 7.7915 245.469 7.45947C245.713 7.12744 245.835 6.68799 245.835 6.14111Z" />
<path d="M109.471 14H103.509V13.0259L106.549 8.99756C107.008 8.37744 107.325 7.86963 107.501 7.47412C107.682 7.07373 107.772 6.65137 107.772 6.20703C107.772 5.64063 107.64 5.18164 107.376 4.83008C107.113 4.47852 106.766 4.30273 106.336 4.30273C105.794 4.30273 105.375 4.49072 105.077 4.8667C104.784 5.23779 104.637 5.7749 104.637 6.47803H103.341C103.341 5.49658 103.609 4.70313 104.146 4.09766C104.684 3.49219 105.414 3.18945 106.336 3.18945C107.186 3.18945 107.855 3.45068 108.343 3.97314C108.832 4.49072 109.076 5.18164 109.076 6.0459C109.076 7.10059 108.526 8.34814 107.428 9.78857L105.055 12.894H109.471V14ZM116.62 9.45166C116.62 11.0239 116.39 12.2007 115.931 12.9819C115.472 13.7583 114.752 14.1465 113.771 14.1465C112.818 14.1465 112.108 13.7729 111.639 13.0259C111.17 12.2788 110.926 11.1558 110.907 9.65674V7.82568C110.907 6.26807 111.136 5.10596 111.595 4.33936C112.059 3.57275 112.779 3.18945 113.756 3.18945C114.718 3.18945 115.428 3.55322 115.887 4.28076C116.351 5.0083 116.595 6.10938 116.62 7.58398V9.45166ZM115.323 7.59863C115.323 6.4707 115.199 5.64063 114.95 5.1084C114.701 4.57129 114.303 4.30273 113.756 4.30273C113.224 4.30273 112.833 4.56641 112.584 5.09375C112.335 5.61621 112.206 6.40723 112.196 7.4668V9.66406C112.196 10.7871 112.325 11.6318 112.584 12.1982C112.843 12.7598 113.238 13.0405 113.771 13.0405C114.298 13.0405 114.686 12.7744 114.935 12.2422C115.184 11.71 115.313 10.897 115.323 9.80322V7.59863ZM122.193 14H120.89V4.96924L118.648 5.97266V4.74219L121.988 3.28467H122.193V14ZM130.653 10.4185H131.839V11.5244H130.653V14H129.356V11.5244H125.328V10.7261L129.291 3.33594H130.653V10.4185ZM126.764 10.4185H129.356V5.3501L126.764 10.4185Z" />
<path d="M6.81885 14H0.856934V13.0259L3.89648 8.99756C4.35547 8.37744 4.67285 7.86963 4.84863 7.47412C5.0293 7.07373 5.11963 6.65137 5.11963 6.20703C5.11963 5.64063 4.98779 5.18164 4.72412 4.83008C4.46045 4.47852 4.11377 4.30273 3.68408 4.30273C3.14209 4.30273 2.72217 4.49072 2.42432 4.8667C2.13135 5.23779 1.98486 5.7749 1.98486 6.47803H0.688477C0.688477 5.49658 0.957031 4.70313 1.49414 4.09766C2.03125 3.49219 2.76123 3.18945 3.68408 3.18945C4.53369 3.18945 5.20264 3.45068 5.69092 3.97314C6.1792 4.49072 6.42334 5.18164 6.42334 6.0459C6.42334 7.10059 5.87402 8.34814 4.77539 9.78857L2.40234 12.894H6.81885V14ZM13.9673 9.45166C13.9673 11.0239 13.7378 12.2007 13.2788 12.9819C12.8198 13.7583 12.0996 14.1465 11.1182 14.1465C10.166 14.1465 9.45557 13.7729 8.98682 13.0259C8.51807 12.2788 8.27393 11.1558 8.25439 9.65674V7.82568C8.25439 6.26807 8.48389 5.10596 8.94287 4.33936C9.40674 3.57275 10.127 3.18945 11.1035 3.18945C12.0654 3.18945 12.7759 3.55322 13.2349 4.28076C13.6987 5.0083 13.9429 6.10938 13.9673 7.58398V9.45166ZM12.6709 7.59863C12.6709 6.4707 12.5464 5.64063 12.2974 5.1084C12.0483 4.57129 11.6504 4.30273 11.1035 4.30273C10.5713 4.30273 10.1807 4.56641 9.93164 5.09375C9.68262 5.61621 9.55322 6.40723 9.54346 7.4668V9.66406C9.54346 10.7871 9.67285 11.6318 9.93164 12.1982C10.1904 12.7598 10.5859 13.0405 11.1182 13.0405C11.6455 13.0405 12.0337 12.7744 12.2827 12.2422C12.5317 11.71 12.6611 10.897 12.6709 9.80322V7.59863ZM19.541 14H18.2373V4.96924L15.9961 5.97266V4.74219L19.3359 3.28467H19.541V14ZM28.7915 9.45166C28.7915 11.0239 28.562 12.2007 28.103 12.9819C27.644 13.7583 26.9238 14.1465 25.9424 14.1465C24.9902 14.1465 24.2798 13.7729 23.811 13.0259C23.3423 12.2788 23.0981 11.1558 23.0786 9.65674V7.82568C23.0786 6.26807 23.3081 5.10596 23.7671 4.33936C24.231 3.57275 24.9512 3.18945 25.9277 3.18945C26.8896 3.18945 27.6001 3.55322 28.0591 4.28076C28.5229 5.0083 28.7671 6.10938 28.7915 7.58398V9.45166ZM27.4951 7.59863C27.4951 6.4707 27.3706 5.64063 27.1216 5.1084C26.8726 4.57129 26.4746 4.30273 25.9277 4.30273C25.3955 4.30273 25.0049 4.56641 24.7559 5.09375C24.5068 5.61621 24.3774 6.40723 24.3677 7.4668V9.66406C24.3677 10.7871 24.4971 11.6318 24.7559 12.1982C25.0146 12.7598 25.4102 13.0405 25.9424 13.0405C26.4697 13.0405 26.8579 12.7744 27.1069 12.2422C27.356 11.71 27.4854 10.897 27.4951 9.80322V7.59863Z" />
</svg>
