<svg viewBox="0 0 738 736" fill="#031b44" xmlns="http://www.w3.org/2000/svg"><path d="M631.3 219.8l41.4 17.4-8.2 16.7-40.3-16.9c2.5 2.5 4.1 5.9 4.1 9.8 0 7.6-6.1 13.7-13.7 13.7s-13.7-6.1-13.7-13.7c0-3.8 1.6-7.3 4.1-9.8l-40.4 17-6.5-16.7 41.4-17.4.2-.1c10-4 21.4-4 31.3 0M684 457.3h43v-18.9h-43v18.9zM656.9 406.2v19h78.4v-19h-78.4zM735.3 373.8c.6-.1 1.3-.2 1.9-.3l-1.9-9.5-1.8-9.1c-27.3 5.5-42.2-8.5-42.7-9l-13.4 13.4c.8.8 16.2 15.9 43.8 15.9 4.2 0 9-.5 14.1-1.4z"/><path d="M543.3 418.4l-6-3.1-6.8-3.5c-1.7-.9-3.5-1.8-5.4-2.6-4-1.9-8.2-3.8-12.3-5.6-1.6-.7-3.2-1.4-4.7-2l-8.8-3.5 2.4-60.9.5-10.4c1.2-.4 2.4-.8 3.8-1.2 2.5-.8 7.5-2.3 10.2-3.3l7.4-2.7c.4 8.6.8 17.3 1.2 26 1.3 28.9 13.4 55.4 29.2 79l-10.7-6.2zm-69.6-103.2c-7.3 2.4-14 6.1-20 10.9l-1.9-37.2 8.5-2.4c1.4-.4 2.8-.9 4.2-1.4l9.4-3.2 2.8-1c3.6-1.4 7.1-2.7 10.6-4.1 1.7-.6 3.4-1.4 5-2.1l10.9-4.9 10.2-5.1c.3-.1 4.1-2.1 7.6-3.9.3 5.7.6 11.5.9 17.4.3 4.6.5 14 .7 18.7l-48.9 18.3zm-37.6 220.6l.9-17.3.2-3.2.2-3.2.5-8 .2-3.2.2-3.2 2.4-37.2.2-3.2.2-3.2.5-8 .2-3.2.2-3.2 2.4-36.9.2-3.2.2-3.2.5-8 .2-3.2.1-1v-.6-1.6c.5-18.9 10-35.3 24-44.1 4.2-2.6 8.7-4.6 13.6-5.7v2l-.1 1.6-2.5 55.6-.1 3.3-.2 3.3-.4 8.2-.2 3.3-.1 3.3-1.7 38.1-.2 3.3-.1 3.3-.4 8.3-.2 3.3-.2 3.3-1.8 39-.2 3.4-.2 3.4-.4 8.6-.2 3.5-.2 3.5-1.9 40.9-.1 3.3v.6l-.2 3.3-.3 6.8-.3 2.4c-.1 1.2-.2 2.4-.4 3.6-.1 1.2-.3 2.4-.4 3.6-1.8 14.4-4.7 27.8-8.7 40-.4 1.1-.7 2.2-1.1 3.3l-1.2 3.3c-1 2.7-2.1 5.4-3.2 8-.5 1.1-.9 2.1-1.4 3.1-.5 1-.9 2.1-1.4 3.1-4 8.2-8.6 15.7-13.7 22.2-18.5 23.6-43.9 35.5-75.5 35.5h-.4c-3.8.1-92.5 2.5-103.6-100.5l-6.4-115.8c3.7 1.2 7.7 1.9 12.1 1.9h.6c16.5-1.1 28.4-13.9 30.3-31.8 4.4 2 9.4 3.1 14.8 3.1.9 0 1.9 0 2.9-.1 17.4-.2 31.4-15.3 31.4-33.9v-78.3c0-1.3-.1-2.6-.2-3.9-.1-1.1-.3-2.1-.5-3.2-.1-.4-.2-.9-.3-1.3-.4-1.8-.9-3.6-1.6-5.3-2.9-7.8-8.2-14.2-15-18.3-.6-.3-1.2-.7-1.7-1l1.7-26.5 3.2-48.9.2-3.4.2-3.3.6-8.3.2-3.4.2-3.3 2.5-37.7.2-3.3.2-3.2.5-8.1.2-3.2.2-3.2 2.5-37.1.2-3.2.2-3.2.5-8 .2-3.2.2-3.2 2.4-36.8.2-3.2.2-3.2.5-7.9.2-3.2.2-3.2 1.3-20.1v-.6c0-7.3 3.9-13.6 9.4-16.3 1.9-.9 3.9-1.4 6-1.4 1.9 0 3.8.4 5.5 1.2 5.8 2.5 9.9 9 9.9 16.5l.8 19.5v6.4l-.1 8v6.4l-.3 36.5v6.4l-.1 7.9v6.4l-.3 36.5v6.4l-.1 7.9v6.4l-.3 36.4V233.9l-.1 7.9v6.4l-.3 36.4v6.4l-.1 7.9v6.4l-.2 27.5v6.4l-.1 7.9v6.4l-.2 20.8v3.2l-.1 14.2v3.1l-.1 8.9 9.5.1 9.5.1v-.9l.1-8.1v-3.2l.1-3.1.1-7.9V374.4l.4-22.5v-3.2l.1-3.2.1-7.9v-6.4l.4-27.6.1-3.2v-3.2l.1-7.9v-6.4l.6-36.7V239.9l.1-8v-3.1l.1-3.2.6-36.8v-3.2l.1-3.2.1-8V168l.6-37.1.1-3.2v-3.3l.1-8.1.1-3.2v-3.3l.3-20.1V80.6c.3-5.5 4.8-9.9 10.4-9.9 5.8 0 10.3 4.2 10.9 10.4l.9 8.4v.5l.7 11.6.2 3.4.2 3.4.5 8.4.2 3.4.2 3.3 2.3 38 .2 3.3.2 3.3.5 8.1.2 3.3.2 3.2 2.2 36.7 4.7 78v.9l3 49.2c-3.6 6.5-6.2 13.6-7.7 21.2-.6 3.2-1.1 6.5-1.3 9.8-.1 1.1-.1 2.1-.1 3.2v1.7l-.1 1.5-.5 7.9-.2 3.2-.2 3.2-2.4 36.6-.2 3.1-.2 3.2-.5 7.9-.2 3.2-.2 3.2-.3 4.7c-10.1 2-27.4 6.5-44.9 16.3-25.1 14.1-55.5 42.2-57.1 95.5v44.7h23v-44.3c.9-27.8 6.8-47 25.6-63.6 1-.9 2.1-1.8 3.2-2.7 1-.8 2.1-1.7 3.2-2.5 3.3-2.4 6.8-4.7 10.5-6.8.2-.1.3-.2.5-.3 1.5-.9 3.1-1.7 4.6-2.5 1.8-.9 3.6-1.8 5.4-2.6 9.3-4.2 18.2-6.8 24.8-8.4l-.8 9-.2 3.2-.2 3.2-.5 8-.2 3.2-.2 3.2-.2 2.3c-12.9 3-29 11.3-37.7 28.8-.5 1-1 2-1.4 3.1-.4 1-.8 2-1.2 3.1-.9 2.5-1.6 5-2.2 7.8-.2 1-.4 2.1-.6 3.1-.2 1-.3 2.1-.4 3.1-.3 2.5-.5 5.2-.5 7.9l22 .2c0-2.2.2-4.3.4-6.3.1-1.1.3-2.1.5-3.1.2-1.1.4-2.1.7-3.1.7-2.8 1.7-5.3 2.8-7.5.5-1 1.1-2 1.6-2.9.6-1 1.3-2 2-2.8 11.8-14.7 32.2-11.6 32.2-11.6zm-183.7-67.2l-1.2-27.3-3.1-68.1c-.6-11.1.8-18.2.8-18.2.6-1.6 1.3-3.1 2.3-4.4 2.8-4 7.1-6.6 12-6.6 8.5 0 15.4 8 15.4 17.7V466c0 7.7-3.3 16.9-12.6 17.7-8-.1-12.5-3.8-13.3-10.9l-.3-4.2zm3.9-144.4l-.6 1.6.6-1.6zm1.4-3.5l1.8-4c.1-.2.2-.5.3-.7.2-.4.3-.8.6-1.2.7-1.3 1.4-2.7 2-4 3.1-5.5 6.2-10.4 9.5-14.8 3.6-4.7 7.5-8.4 11.6-12.6 4.2-4.1 8.8-8 13.4-11.5 4.5-3.3 9.4-6.3 14.8-9.3.2-.1.5-.3.7-.4l-4.2 62.9c-8 .9-15 4.8-20.3 10.6h-.6c-6.2-6.7-14.8-10.8-24.3-10.8-1.9 0-3.8.2-5.6.5-.6.1-1.2.2-1.8.4l1-2.4 1.1-2.7zm69.7 40.9V440c0 8.2-5.8 15-12.9 15h-.7c-4.9.4-8.8-.7-11.6-3.2-2.8-2.5-4.5-6.4-4.7-10.9v-79.1-1.3c.2-4.1 1.6-7.8 3.7-10.6 1.3-1.7 2.8-3.2 4.6-4.2 1.2-.7 2.5-1.2 3.9-1.4.7-.1 1.5-.2 2.3-.2 8.4-.2 15.4 7.8 15.4 17.5zm127.2-128.5l2.3-.8c2.9-1.1 5.8-2.2 8.6-3.3 1.4-.5 2.7-1.1 4-1.7l9-4 9.1-4.6c1.1-.6 2.3-1.2 3.4-1.8 2.7-1.5 5.4-3 8.1-4.6 6.5-3.9 12.7-8.1 18.7-12.4.5 14 1.2 23.4 1.9 37.8-.9.5-1.9 1.1-3.1 1.8-3.5 2-7.5 4.3-8.2 4.7-1.2.7-2.5 1.3-3.8 2l-10.4 5.3-10.2 4.6c-1.5.7-3 1.3-4.5 1.9-3.3 1.3-6.7 2.6-10.1 3.9l-11.4 3.9c-1.3.4-2.5.9-3.8 1.2l-3.8 1.1-2.2-32.7 6.4-2.3zM651 504.4c-11.2-10.4-22.1-21.3-31.8-31.5-30.8-32.8-73.1-77.6-75.4-128-.9-21.2-2.1-42.4-3.1-63-1.8-33.6-3.4-65.5-4.4-96.8 6.7-5.9 13.1-12.1 19.2-18.6l.9-1.1c18.6 9.6 60.6 28.1 111 29.3l.5-21.5c-43.1-1.1-78.8-15.4-97.5-24.6l.9-1.1c3-3.9 5.9-7.8 8.6-11.9l5-7.7c.9-1.3 1.6-2.6 2.4-3.9l4.8-8.3 4.6-9c.6-1.2 1.2-2.3 1.7-3.5 1.3-2.8 2.6-5.6 3.8-8.4.5-1.1.9-2.1 1.3-3.2l1.8-4.5c-.8-.7-1.7-1.4-2.5-2.1-.8-.7-1.7-1.4-2.5-2.1-2.1-1.7-4.3-3.4-6.4-5.1-.9-.7-1.7-1.4-2.6-2-.9-.7-1.8-1.3-2.6-2l-.3.9c-.3.9-.7 1.8-1.1 2.8l-2.1 5.3c-.2.4-.4.9-.5 1.3-.3.9-.7 1.7-1.1 2.6l-3.6 8c-.4 1-1 2-1.5 3l-4.3 8.3-4.5 7.7c-.7 1.2-1.3 2.3-2.1 3.4l-4.7 7.3c-6.5 9.5-13.6 18.6-21.2 27-7.7 8.4-16.1 16.3-24.9 23.6-8.7 7-18.1 13.7-28.1 19.7l-7.6 4.3c-.9.6-1.9 1.1-2.9 1.6l-8.4 4.3-8.3 3.7c-1.2.5-2.3 1-3.5 1.5l-8.1 3.2-2.9.7-2.3-38.1c.8-.3 1.5-.6 2.3-1l7-3.2 7.1-3.6c.9-.4 1.8-.9 2.6-1.4l6.3-3.6c8.5-5.1 16.5-10.7 23.8-16.6 7.4-6.1 14.5-12.8 21.1-19.9 6.4-7 12.4-14.7 17.9-22.8l3.8-6c.7-1 1.2-2 1.8-3l3.8-6.6 3.6-7c.4-.9.9-1.8 1.3-2.7l2.9-6.4c.4-.8.7-1.6 1-2.4.1-.4.3-.7.4-1.1l1.8-4.5c.3-.7.6-1.5.9-2.3l2.9-8.4.3-.9c-.9-.6-1.9-1.2-2.8-1.7-.9-.6-1.9-1.1-2.8-1.6-2.3-1.4-4.7-2.7-7-4-.9-.5-1.9-1-2.8-1.5-.9-.5-1.9-1-2.8-1.5l-1 3.5c-.1.2-.1.4-.2.6-.1.3-.1.5-.2.8l-2.6 7.7c-.2.6-.5 1.2-.7 1.9l-1.7 4.2c-.1.3-.3.7-.4 1-.2.6-.5 1.2-.8 1.9l-2.8 6.1c-.3.7-.7 1.4-1.1 2.2l-3.3 6.3-3.5 6.1c-.5.8-.9 1.6-1.4 2.4l-3.6 5.5c-5 7.3-10.4 14.1-16 20.4-5.9 6.3-12.3 12.4-18.9 17.9-6.5 5.3-13.7 10.3-21.3 14.9l-5.8 3.3c-.7.4-1.4.7-2.1 1.1l-6.4 3.3-1.8.8-2.4-39.9c6-3.7 11.6-7.6 16.7-11.7 5.3-4.4 10.3-9.1 15-14.2 4.5-5 8.8-10.4 12.8-16.3.9-1.4 1.8-2.8 2.7-4.1.5-.7.9-1.4 1.3-2.1l2.7-4.6 2.6-5.1c.3-.7.7-1.3.9-1.9.7-1.5 1.4-3 2-4.4.3-.6.6-1.2.8-1.8.1-.2.2-.5.3-.7l1.3-3.3c.2-.5.4-1 .6-1.6l2-5.9c.1-.4.2-.7.3-1l.1-.4c.4-1.6.9-3.2 1.3-4.7.2-.6.4-1.3.5-1.9 0-.3.1-.5.2-.8l.2-.9-3-1.2-3-1.2c-2.5-1-5-1.9-7.4-2.8-1-.4-2-.7-3-1.1-1-.3-2-.7-3-1l-.7 3.2c-.1.3-.1.6-.2.9-.1.4-.2.7-.3 1.2-.4 1.5-.9 2.9-1.2 4.3 0 .2-.1.3-.1.5 0 .1-.1.3-.1.4l-1.8 5.2c-.1.4-.3.8-.5 1.2l-1.2 3c-.1.3-.2.5-.3.8-.1.4-.3.7-.5 1.2-.6 1.4-1.3 2.8-1.9 4.3l-.6 1.2-2.3 4.5-2.4 4.1c-.3.5-.5.9-.9 1.5-.8 1.3-1.7 2.6-2.4 3.7-3.4 5-7.1 9.6-10.9 13.9-4 4.3-8.4 8.4-12.9 12.1-1.6 1.3-3.4 2.6-5.1 3.9l-.1-1.1c-.1-11.7-4.4-22.3-11.8-29-1.4-1.3-3-2.4-4.6-3.4 2.6-2.3 5.1-4.6 7.5-7.2 2.6-2.9 5.2-6.2 7.6-9.6l.1-.2c.5-.8 1-1.6 1.4-2.2.4-.5.7-1 .9-1.4l.1-.2c.2-.4.5-.8.7-1.2.2-.4.5-.8.7-1.2l.8-1.6.6-1.2.2-.3c.2-.4.5-.9.6-1.3.4-.8.7-1.6 1.1-2.5.3-.5.4-.9.5-1.2 0-.1.1-.2.2-.4.2-.4.3-.8.5-1.3.1-.2.2-.4.2-.6.1-.3.2-.6.3-.8l.1-.2c.1-.4.3-.9.4-1.3.2-.4.3-.9.5-1.3l.2-.6.3-.9v-.2c.2-.9.5-1.7.7-2.6.2-.5.3-1 .3-1.3 0-.1 0-.2.1-.4.1-.4.2-.9.3-1.3l.4-1.4.1-.3c.1-.4.1-.9.2-1.3-1-.2-2-.5-3.1-.7-1-.2-2-.5-3.1-.7-2.6-.6-5.1-1.1-7.7-1.6-1-.2-2.1-.4-3.1-.6-1-.2-2.1-.4-3.1-.6 0 .1 0 .2-.1.3-.1.4-.1.7-.2 1.1l-.2 1-.3 1.2c0 .2-.1.4-.1.6v.1l-.1.2c-.3.8-.5 1.7-.7 2.4 0 .1 0 .2-.1.3v.1l-.2.5c-.1.4-.3.8-.4 1.2-.1.4-.2.7-.3 1.1 0 .1-.1.2-.2.3-.1.2-.2.4-.2.6-.2.4-.3.8-.4 1.1-.1.2-.1.4-.2.6v.2l-.1.2c-.4.8-.8 1.6-1.1 2.4l-.1.2c0 .1-.1.2-.2.3l-.2.3-.6 1.2c-.2.3-.3.6-.5 1l-.6.9c-.2.4-.4.8-.7 1.2l-.1.2c-.1.1-.1.3-.2.4l-.1.1c-.5.7-.9 1.4-1.4 2.1-1.9 2.7-3.8 5.1-5.7 7.2-2.2 2.3-4.5 4.5-6.8 6.4-2.2 1.8-4.7 3.5-7.6 5.3-.7.4-1.5.8-2.3 1.3-.1.1-.2.1-.3.1l-.4.2-1.2.6-.9.5h-.1l.1-13.9C395.9 17 381.5.9 363.5-.1c-.7-.1-3.2 0-3.2 0-91.7 1.8-182.8 37.6-252.8 107.6-20.1 20.1-37.4 41.9-51.8 65-.1.2-.3.5-.4.7-4.6 7.5-9 15.1-13.1 22.8-.2.5-.5.9-.7 1.4-2.5 4.7-4.8 9.5-7 14.3l-1.6 3.5c-2 4.4-4 8.9-5.8 13.4l-.4 1.1c-2.1 5.2-4.1 10.4-5.9 15.7-.1.4-.3.8-.4 1.3-1.4 4-2.7 8.1-3.9 12.1l-2.4 8.1C9.2 284 5.6 301.4 3.2 318.8l-.7 5.6a359.5 359.5 0 00-2.4 32.7c0 .9-.1 1.9-.1 2.8v14.3c0 2.7.1 5.4.2 8.1 0 1.1.1 2.2.1 3.3.1 1.1.1 2.2.2 3.3 0 0 18.8-2.4 19.9-25.2l.1-3.5.3-10.7c.2-4 .6-8.2.9-12.2l.2-2.3c.1-1.5.3-3.1.4-4.6l.8-6.4.9-7.1c.3-1.9.5-3.7.9-5.6.7-4.2 1.5-8.4 2.3-12.7.3-1.8.7-3.5 1.1-5.4l3.2-13.3c.4-1.7.9-3.4 1.4-5.1l3-10.4.9-3c1.3-4.1 2.7-8.2 4.2-12.2l.4-1c.2-.6.4-1.3.7-1.9l6-14.9c.7-1.6 1.4-3.3 2.2-4.9l3.7-8.1c.7-1.5 1.4-3 2.1-4.4 1.9-3.8 3.9-7.6 5.9-11.4 8.3-15.3 17.6-29.8 27.5-43.1C99.8 146 111 133.1 123 121.1c12.1-11.9 25.1-23.1 38.7-33.2 13.4-9.9 28-19 43.2-27.2 3.8-2 7.7-3.9 11.5-5.8 1.4-.7 2.9-1.4 4.4-2.1l8-3.6c1.7-.8 3.4-1.5 5-2.2l6-2.4 9.1-3.5c.6-.2 1.3-.5 2-.7l1-.3c4.1-1.4 8.2-2.8 12.2-4.1l13.3-3.8c1.7-.5 3.5-.9 5.1-1.4l6.3-1.5 7.2-1.6c1.8-.4 3.5-.8 5.3-1.1 4.2-.8 8.5-1.5 12.7-2.2 1.8-.3 3.6-.6 5.5-.8l10.5-1.3c-1.8 4.3-2.7 9.1-2.8 14.1l-1.5 23.1-1.2.1c-1.6.2-3.4.4-5 .7-3.8.6-7.5 1.3-11.2 2-1.7.3-3.3.6-4.9 1l-12 2.8c-1.5.4-2.9.8-4.4 1.2l-9.3 2.6-2.8.9c-3.6 1.2-7.2 2.4-10.9 3.6l-.9.3c-.6.2-1.3.4-1.9.7l-13.3 5.2c-1.4.6-2.7 1.2-4.1 1.8l-7.6 3.4c-1.3.6-2.7 1.2-4 1.9-3.4 1.7-6.8 3.4-10.2 5.2-13.7 7.4-26.7 15.6-38.7 24.4-12.2 9.1-23.8 19.1-34.7 29.7-10.7 10.7-20.8 22.3-29.9 34.5-8.9 11.9-17.2 24.9-24.6 38.6-1.8 3.4-3.5 6.7-5.2 10.1-.7 1.3-1.3 2.7-1.9 4l-3.5 7.6c-.6 1.3-1.2 2.7-1.8 4.1L76.4 259c-.2.6-.5 1.3-.7 1.9l-.3.9c-1.3 3.6-2.5 7.2-3.7 10.8l-3.6 12.1c-.4 1.5-.8 3-1.3 4.5l-2.8 12c-.4 1.6-.7 3.2-1 4.8-.7 3.7-1.4 7.5-2 11.2-.3 1.7-.6 3.4-.8 5l-1.5 12.1c-.2 1.4-.3 2.8-.4 4.2l-.2 3.1c-.3 3.2-.5 6.5-.7 9.9v1.2c-.1 3.6-.3 7.3-.3 10.9v.2c0 .8-.1 1.5-.1 2.4V367.1c0 .4-.1.9-.1 1.3s-.1.9-.1 1.3l-.1.9c-.1.9-.3 1.8-.3 2.7v.3c0 .2-.1.4-.1.5-.1.4-.2.9-.2 1.3-.1.4-.1.7-.2 1.1l-.3 1c-.1.4-.2.9-.3 1.2 0 .2-.1.4-.1.6v.1l-.1.2c-.3.8-.5 1.7-.7 2.4 0 .1 0 .2-.1.3l-.2.5c-.1.4-.3.8-.4 1.2-.1.4-.2.7-.4 1.1 0 .1-.1.2-.2.4s-.2.4-.2.6c-.2.4-.3.8-.4 1.1-.1.2-.1.4-.2.6v.1l-.1.2c-.4.8-.8 1.6-1.1 2.4l-.1.2c0 .1-.1.2-.2.3l-.2.3-.6 1.2c-.2.3-.3.6-.5 1l-.6.9c-.2.4-.5.8-.7 1.2l-.1.2c-.1.1-.1.3-.2.4l-.1.1c-.5.7-.9 1.4-1.4 2.1-1.9 2.6-3.8 5.1-5.7 7.2-2.2 2.3-4.5 4.5-6.8 6.4-2.2 1.8-4.7 3.5-7.6 5.3-.7.4-1.5.8-2.2 1.2l-.1.1c-.1 0-.2.1-.3.1l-.3.2-1.2.6-.9.5c-.3.1-.7.3-1 .4-.4.2-.8.3-1.2.5l-.2.1c-.1.1-.2.1-.4.2h-.2c-.8.3-1.6.6-2.5 1l-.8.3c-.4.1-.8.3-1.2.4-.2.1-.4.2-.6.2-.1 0-.2.1-.3.1-.4.1-.7.2-1.1.3-.4.1-.8.2-1.3.4l-.2.1c-.1 0-.3.1-.4.1h-.2c-.9.2-1.7.4-2.7.6h-.3c-.2 0-.4 0-.5.1-.4.1-.9.1-1.3.2-.1 0-.2 0-.3.1.2 1 .3 2.1.5 3.1s.4 2.1.6 3.1c.4 2.6.9 5.2 1.4 7.7.2 1 .4 2.1.6 3.1.2 1 .4 2.1.6 3.1h.1c.5-.1.9-.2 1.4-.2h.4c.4-.1.9-.1 1.4-.3.9-.2 1.7-.4 2.5-.6.6-.1 1.2-.3 1.6-.4l.2-.1c.4-.1.9-.3 1.3-.4.4-.1.9-.2 1.3-.3l.2-.1.9-.3.6-.2c.4-.1.9-.3 1.3-.4l.8-.2c.1 0 .3-.1.4-.1l.5-.2c.8-.4 1.7-.7 2.4-1 .6-.2 1.1-.4 1.5-.6l.2-.1 1.2-.6c.4-.2.9-.4 1.3-.5l1.5-.8c.4-.2.8-.4 1.3-.6l.3-.1c.4-.2.8-.4 1.3-.7.8-.5 1.6-.9 2.4-1.3l.2-.1c3.8-2.3 7-4.6 10.1-7 3.1-2.6 6.1-5.4 9-8.5 2.6-2.9 5.1-6.2 7.6-9.6l.1-.2c.5-.8 1-1.6 1.4-2.2.4-.5.7-1 .9-1.4l.1-.2c.2-.4.5-.8.7-1.2.2-.4.5-.8.7-1.2l.8-1.6.6-1.2.2-.3c.2-.4.5-.8.6-1.3.4-.8.7-1.6 1.1-2.4.3-.5.4-.9.5-1.3 0-.1.1-.2.2-.4.2-.4.3-.9.5-1.3.1-.2.2-.4.2-.6.1-.3.2-.5.3-.8l.1-.2c.1-.4.3-.9.4-1.3.1-.4.3-.9.5-1.3l.2-.6.3-.9v-.2c.2-.9.5-1.7.7-2.6.2-.5.3-.9.3-1.3 0-.1 0-.2.1-.4.1-.4.2-.9.3-1.3l.4-1.4.1-.3c.1-.5.1-.9.2-1.4.1-.5.2-.9.3-1.4l.1-.4c.1-.4.2-.8.2-1.4.1-.9.2-1.8.4-2.8v-.2c0-.2.1-.5.1-.8v-.7c0-.5.1-.9.1-1.4 0-.5.1-.9.1-1.4 0-.4.1-.8 0-1.1v-.7l.1-2.9.2-3.3h-.1c.1-2.2.1-4.3.2-6.5v-1.5c.2-3 .4-6.1.7-9l.3-3.2c.1-1.2.2-2.5.3-3.7l1.5-11.4c.2-1.5.4-3 .7-4.5.6-3.5 1.3-7.1 1.9-10.6.3-1.4.6-2.8.9-4.3l2.7-11.3c.3-1.3.7-2.6 1.1-3.9l2.6-9 .8-2.5c1.1-3.4 2.3-6.8 3.5-10.2l.3-.9c.2-.5.3-1 .6-1.5l5-12.5c.6-1.3 1.1-2.5 1.7-3.8l3.3-7.2c.6-1.2 1.1-2.4 1.7-3.5 1.6-3.2 3.3-6.4 4.9-9.5 7-12.8 14.7-24.9 23-36 8.6-11.3 18-22.2 28-32.2 10.1-9.9 21-19.3 32.4-27.8 11.1-8.2 23.3-15.9 36.1-22.8 3.2-1.6 6.4-3.3 9.7-4.9 1.1-.6 2.3-1.1 3.6-1.7l7.2-3.2c1.3-.6 2.6-1.1 3.8-1.7l12.6-4.9c.5-.2 1-.4 1.6-.6l.9-.3c3.4-1.2 6.8-2.3 10.3-3.4l11.4-3.3c1.4-.4 2.7-.7 4-1.1l11.4-2.6c1.5-.3 2.9-.6 4.3-.9 3.5-.6 7.1-1.3 10.7-1.9.5-.1 1.1-.2 1.6-.3l-2.5 37.4c-.9.2-1.8.3-2.7.5-1.4.2-2.7.5-4 .8l-9.9 2.3c-1.1.3-2.1.6-3.2.9l-8 2.3-2.3.7c-2.9 1-5.9 1.9-8.8 3l-.7.3c-.5.2-1 .3-1.5.5l-10.9 4.2c-1.1.5-2.2 1-3.3 1.4l-6.3 2.9c-1.1.5-2.2 1-3.2 1.5-2.8 1.4-5.5 2.8-8.3 4.2-11.3 6.1-21.9 12.7-31.6 19.9-9.9 7.4-19.5 15.6-28.3 24.3-8.8 8.8-17 18.3-24.5 28.2-7.2 9.7-14 20.2-20.1 31.5-1.4 2.7-2.8 5.5-4.2 8.2-.6 1.1-1.1 2.2-1.5 3.2l-3 6.4c-.5 1.1-1 2.1-1.4 3.2l-4.3 10.7c-.2.5-.4 1.1-.6 1.6l-.3.7c-1 2.9-2 5.9-3 8.8l-3 10.3-.9 3.3-2.3 9.9c-.3 1.2-.6 2.5-.8 3.8-.6 3.1-1.1 6.1-1.7 9.1-.3 1.4-.4 2.7-.6 4l-1.3 9.9-.3 3.3-.3 3.6c-.2 2.4-.4 4.7-.5 7.2l-.1 2.9c-.1 2.1-.1 4.1-.2 6.2v.5c-.1 1.4-.1 2.8-.1 4.2v2.1l-.4 5.7c0 .2 0 .3-.1.5v.4c-.2 1.5-.4 3-.6 4.7 0 .4-.1.8-.2 1.2 0 .3-.1.5-.1.8l-.8 4.4-1 4.3c-.1.3-.1.6-.2.9-.1.4-.2.7-.3 1.2-.4 1.5-.9 2.9-1.2 4.3 0 .2-.1.3-.1.5 0 .1-.1.3-.1.4l-1.8 5.3c-.1.4-.3.8-.5 1.1l-1.2 3c-.1.3-.2.5-.3.8-.1.4-.3.7-.5 1.2-.6 1.4-1.3 2.8-1.9 4.3l-.6 1.2-2.3 4.5-2.4 4.1c-.3.5-.5 1-.9 1.5-.8 1.3-1.7 2.6-2.4 3.8-3.4 4.9-7.1 9.6-10.9 13.9-4 4.3-8.4 8.4-12.9 12.2-4.4 3.5-9.2 6.9-14.4 10.1-1.3.7-2.6 1.5-4.1 2.3l-1.2.6-4.5 2.3-4.4 2c-.5.2-1 .5-1.5.7-1.4.5-2.8 1.1-4.3 1.7l-5 1.7c-.4.1-.8.3-1 .4l-4.7 1.3c-.5.1-1 .3-1.7.4-1.5.3-3 .7-4.5 1-.3.1-.5.1-.8.1.3 1 .7 2 1 3 .3 1 .7 2 1 3 .9 2.5 1.7 5 2.7 7.5.4 1 .7 2 1.1 3l1.2 3c1-.2 2.1-.5 3.1-.7.9-.2 1.7-.4 2.4-.6l5.2-1.5c.5-.2 1-.3 1.5-.5l4.5-1.5 1.4-.5c1.5-.6 3.1-1.2 4.6-1.8.8-.3 1.5-.6 2.2-.9l4.9-2.2 5.2-2.6c.6-.3 1.3-.6 1.8-1 1.5-.8 2.9-1.7 4.5-2.5 6.1-3.7 11.8-7.7 16.9-11.8 5.3-4.4 10.3-9.1 15-14.2 4.5-5 8.8-10.4 12.8-16.3.9-1.4 1.8-2.8 2.7-4.1.5-.7.9-1.5 1.3-2.1l2.7-4.6 2.6-5.1c.3-.7.7-1.3.9-1.9.7-1.5 1.4-3 2-4.5.3-.6.6-1.2.8-1.8.1-.2.2-.5.3-.7l1.3-3.3c.2-.5.4-.9.6-1.5l2-5.9c.1-.3.2-.7.3-1l.1-.4c.4-1.6.9-3.2 1.3-4.7.2-.6.4-1.3.5-1.9 0-.2.1-.5.2-.8l1.2-4.9 1.1-5.8c.1-.6.2-1.3.3-1.9.2-1.7.4-3.3.6-5l.1-.4c0-.3.1-.6.1-1l.5-6.2c.1-.5.1-1 .1-1.6v-1.3c0-.7 0-1.5.1-2.2l.1-2.7.1-3.3c0-.8 0-1.5.1-2.3l.1-3c.1-2.1.3-4.2.5-6.3l.3-3.8c.1-.9.1-1.9.2-2.8l1.2-9.3c.2-1.2.3-2.3.5-3.5l1.6-8.6c.2-1.1.4-2.2.7-3.3l2.1-9.1c.3-1 .6-2 .8-3l2.2-7.4 3.7-10.9c.1-.4.3-.8.4-1.2l4-10c.4-.9.8-1.9 1.3-2.8l2.8-6.1c.4-.9.8-1.8 1.3-2.8l4-7.7c5.7-10.4 11.9-20.1 18.5-29 6.9-9.1 14.5-17.9 22.5-25.9 8.2-8 16.9-15.5 26.1-22.3 8.9-6.6 18.7-12.7 29-18.3l7.8-4c.9-.5 1.8-.9 2.7-1.3l6.1-2.7c1-.4 1.9-.9 2.8-1.2l10.2-4c.4-.2.8-.3 1.2-.4l9-3 9.5-2.7c1-.3 2-.5 2.8-.8l9.2-2.1c.3-.1.6-.1.9-.2l-2.5 38-.9.3-6.4 1.8-9.2 3c-.4.1-.9.3-1.2.4l-8.4 3.3c-.7.3-1.4.6-2.1 1l-5.4 2.4c-.8.4-1.7.7-2.4 1.2l-6.4 3.3c-8.8 4.8-17 9.9-24.5 15.5-7.7 5.8-15.1 12.1-22 18.9-6.8 6.8-13.2 14.2-19 21.9-5.5 7.4-10.8 15.6-15.6 24.5l-3.2 6.3c-.4.8-.8 1.7-1.2 2.5l-2.5 5.4c-.3.7-.6 1.4-1 2.2l-3.3 8.3c-.2.4-.3.8-.5 1.3l-2.5 7.3-2.4 8.2c-.2.8-.4 1.5-.7 2.4l-1.8 7.7c-.2 1-.5 1.9-.6 2.9l-1.3 7c-.2 1.1-.3 2.1-.5 3.1l-1 7.8c-.1.8-.1 1.6-.2 2.4l-.3 3.7c-.1 1.6-.3 3.2-.4 4.9 0 1.1-.1 2.2-.1 3.4l-.3 11.4c0 .5 0 .9-.1 1.5l-.6 8.2c0 .3-.1.6-.1 1l-.9 7.2c-.1.7-.2 1.4-.3 2-.1.3-.1.7-.2 1l-1.2 6.4-1.5 6.3c-.1.4-.2.7-.3 1.1-.2.6-.3 1.3-.5 2l-1.8 6.3c-.1.2-.1.4-.2.7-.1.3-.2.5-.3.8l-2.6 7.7c-.2.6-.5 1.2-.7 1.8l-1.7 4.2c-.1.3-.3.7-.4 1-.2.6-.5 1.2-.8 1.9l-2.8 6.1c-.3.7-.7 1.4-1.1 2.2l-3.3 6.3-3.5 6c-.5.8-.9 1.6-1.5 2.4l-3.6 5.5c-5 7.2-10.4 14.1-16 20.4-5.9 6.4-12.3 12.4-18.9 17.9-6.5 5.3-13.7 10.3-21.3 14.9l-5.8 3.3c-.7.4-1.4.7-2.1 1.1l-6.4 3.3-6.4 2.9c-.8.4-1.6.7-2.5 1.1l-6.2 2.4-7.2 2.5c-.7.2-1.3.4-1.9.6l-6.4 1.8c.5.9 1 1.9 1.5 2.9.5.9 1 1.9 1.5 2.9 1.2 2.4 2.5 4.7 3.8 7.1.5 1 1.1 1.9 1.6 2.8.5.9 1.1 1.9 1.6 2.8l2.3-.6c.8-.2 1.5-.5 2.2-.7l6.3-2.1 8.4-3.2c1.1-.4 2.1-.9 3.1-1.3l7-3.2L87 539c.9-.5 1.8-.9 2.6-1.4l6.3-3.6c8.5-5.1 16.5-10.7 23.8-16.6 7.4-6.1 14.5-12.8 21.1-19.9 6.4-7 12.4-14.7 17.9-22.8l3.8-5.9c.7-1 1.2-2 1.8-3l3.8-6.6 3.6-7c.4-.9.9-1.8 1.3-2.7l2.9-6.4c.4-.8.7-1.6 1-2.5.1-.3.3-.7.4-1l1.8-4.5c.3-.7.6-1.5.9-2.3l2.9-8.4c.1-.4.3-.9.4-1.3l2.1-7.4c.3-.8.5-1.7.7-2.6.1-.4.2-.7.3-1.1l1.6-7.1 1.5-8c.2-.9.3-1.8.4-2.7l1-7.7c0-.4.1-.9.1-1.3l.7-8.9c.1-.7.1-1.3.1-2l.2-6.3.1-4.9c0-1.2.1-2.4.1-3.5.1-1.4.2-2.8.3-4.1.1-.8.1-1.6.2-2.4l.1-1.2c0-.7.1-1.3.2-1.9l.9-7.2c.1-.8.2-1.6.4-2.5l1.2-6.6c.1-.8.3-1.6.5-2.4l1.6-7c.2-.7.4-1.3.6-2l1.7-5.9 2.8-8.3c.1-.3.2-.5.3-.8l3-7.6c.3-.6.6-1.2.8-1.8l2.3-5c.3-.6.6-1.3.9-2l3-5.8c4.3-7.9 9.1-15.3 14-21.9 5.2-6.9 11-13.5 17-19.6 6.2-6.1 12.8-11.8 19.7-16.9 6.7-4.9 14.1-9.6 22-13.8l6-3c.6-.3 1.3-.6 1.9-.9l5.1-2.3c.6-.3 1.2-.6 1.7-.8l7.7-3c.3-.1.5-.2.8-.3l6.8-2.3 1.5-.4-2.6 39.5h-.1l-5.4 2.4-1.8.9c-1.5.8-3 1.5-4.5 2.3-6.4 3.5-12.2 7.9-17.5 11.8-5.5 4.1-10.8 8.6-15.7 13.4-4.8 4.9-9.3 9.4-13.5 14.8-3.9 5.3-7.5 10.9-11.1 17.4-.8 1.5-1.5 3-2.2 4.4l-.9 1.8-2.4 5.3-2.4 5.9c-.1.3-.3.7-.4 1l-.7-.8c-.5 1.6-1.1 3.1-1.6 4.7l-1.8 6c-.1.5-.3 1-.5 1.6l-1.3 5.4c-.2.6-.3 1.4-.4 2.1-.3 1.6-.6 3.3-.9 4.8-.2.8-.3 1.6-.4 2.3l-.7 5.5c-.1.6-.1 1.1-.1 1.7 0 .3 0 .6-.1 1 0 .7-.1 1.5-.2 2.2-.1.9-.2 1.9-.2 3v.6l-.4 13.9c0 .6 0 1.3-.1 2l-.9 10.8c0 .4-.1.9-.2 1.3l-1.2 9.4c-.1 1-.3 2-.5 2.9l-1.8 9.6-2 8.5c-.1.4-.2.9-.3 1.3-.2.9-.4 1.8-.7 2.8l-2.6 9.1c-.1.4-.2.8-.4 1.2l-3.5 10.2c-.3.9-.7 1.8-1.1 2.7l-2.1 5.3c-.2.4-.3.9-.5 1.3-.4.9-.7 1.8-1.1 2.6l-3.6 8-1.5 3-4.3 8.3-4.5 7.7c-.7 1.2-1.3 2.3-2.1 3.4l-4.7 7.2c-6.5 9.6-13.6 18.6-21.2 27-7.8 8.4-16.2 16.3-24.9 23.6-8.7 7-18.1 13.7-28.1 19.7l-7.6 4.3c-1 .6-1.9 1.1-2.9 1.5l-8.5 4.3-8.3 3.7c-1.2.5-2.3 1-3.5 1.5l-8.1 3.2-4.5 1.5c.7.9 1.3 1.8 2 2.7.7.9 1.3 1.8 2 2.7 1.7 2.2 3.3 4.4 5.1 6.5.7.9 1.4 1.7 2.1 2.6.7.9 1.4 1.7 2.1 2.6 2.4-.9 4.7-1.8 7-2.7 1.4-.5 2.8-1.2 4.2-1.8l8.8-4 9-4.6c1.1-.6 2.3-1.2 3.4-1.8 2.7-1.5 5.4-3.1 8.1-4.6 10.9-6.5 21.1-13.7 30.6-21.4 9.6-7.9 18.7-16.5 27.1-25.6 8.2-9.1 16-19 23.1-29.4l5-7.7c.9-1.3 1.6-2.7 2.4-3.9l4.8-8.3 4.6-9c.6-1.1 1.2-2.3 1.7-3.5 1.3-2.8 2.6-5.6 3.8-8.4.5-1.1.9-2.1 1.3-3.2l2.7-6.8c.3-.9.7-1.7 1-2.6l1 19c0 1.2.1 2.5.2 3.6l2.5 45-1 3.1C211 587.7 119 626.2 119 626.2l-9 4c.8.8 1.1 1.1 1.9 1.8.4.3.7.7 1.1 1.1l1.4 1.4c2 1.9 4.1 3.9 6.2 5.7.8.8 1.7 1.5 2.6 2.3.9.8 1.7 1.5 2.6 2.3l1.7-.8c68.4-26.4 101.9-69.4 110.6-82.1l3.1 55.8v.1l-4.3 3.5c-26 21.2-56.4 37.9-77.4 48.1l-1.3.6-4.2 2s14.7 9.3 22.3 13.5l1.5-.7c.7-.3 1.3-.6 2-1 22.3-11 46.6-26.3 65.7-41.3 3.8 15.4 9.5 28.3 16.2 38.9l-.3.1c-17 10.4-32.1 17.9-39.5 21.3l-2.5 1.2-4.1 1.9 6.8 2.7c4.3 1.7 8.3 3.7 12.6 5.9l1.8.9 1.3-.6c1.4-.6 2.9-1.2 4.3-1.8 10.7-4.7 21.2-10 31.4-16 11 12.2 23.2 20.3 34.3 25.7 13.8 6.7 27.2 10 37.5 11.5 8 1.2 14.1 1.4 17.2 1.4h1.8c5.2 0 10.3-.3 15.3-.9.3 0 .6-.1.9-.1 0 0 1-.1 1.2-.2 29.5-4 54.5-18.1 72.9-41.5 4.2-5.4 8.1-11.3 11.7-17.7 1 1.5 1.9 3 2.9 4.5.8 1.3 1.5 2.7 2.3 4.1.3.4.4.8.6 1.2l2.3 4.5 2 4.4c.2.5.5 1 .7 1.6.5 1.4 1.1 2.8 1.7 4.2l1.7 5c.1.4.3.8.3 1l1.3 4.7c.1.5.3 1 .4 1.7.3 1.3.6 2.7.9 4.1 1-.3 2-.7 3-1 1-.3 2-.7 3-1 2.5-.9 5-1.8 7.4-2.7l3-1.2 3-1.2c-.1-.6-.3-1.1-.4-1.7-.2-.9-.4-1.6-.6-2.4l-1.5-5.3c-.2-.5-.3-1-.5-1.5l-1.6-4.7c0-.2-.1-.3-.2-.6l-.2-.6c-.6-1.6-1.2-3.1-1.8-4.6-.3-.8-.6-1.5-1-2.3l-2.2-4.9-2.6-5.1c-.3-.7-.7-1.3-1-1.9-.8-1.4-1.7-2.9-2.5-4.4-3.3-5.5-6.9-10.6-10.6-15.3 4.9-12.6 8.6-26.5 11.2-41.5 5.6 5.3 10.9 11 15.8 16.9 5.3 6.5 10.3 13.7 14.9 21.3l3.3 5.8c.4.7.7 1.4 1.1 2.1l3.3 6.4 2.9 6.4c.4.9.8 1.7 1.1 2.6l2.4 6.2 2.5 7.3c.2.6.4 1.3.6 1.8l1.3 4.7c1-.5 1.9-1 2.9-1.5s1.9-1 2.9-1.5c2.4-1.3 4.7-2.6 7.1-3.9.9-.5 1.9-1.1 2.8-1.6.9-.6 1.9-1.1 2.8-1.6l-.1-.4c-.2-.8-.5-1.5-.7-2.3l-2.1-6.3-3.2-8.4c-.4-1.1-.9-2.1-1.3-3.1l-3.2-7-3.6-7.1c-.4-.9-.9-1.8-1.4-2.6l-3.6-6.3c-5.1-8.5-10.7-16.5-16.6-23.8-6.1-7.4-12.8-14.5-19.9-21.1-2.8-2.5-5.8-5-8.8-7.5l2-43.5 4.4 2.8c9.5 6.5 18.6 13.6 27 21.2 8.4 7.7 16.3 16.1 23.6 24.9 7 8.7 13.7 18.2 19.7 28.1l4.3 7.6c.6.9 1 1.9 1.5 2.8l4.3 8.5 3.8 8.4c.5 1.2 1 2.3 1.5 3.5l3.2 8.1.8 2.3c.9-.7 1.8-1.4 2.7-2 .9-.6 1.7-1.3 2.6-2 2.2-1.7 4.3-3.4 6.5-5.2.9-.7 1.7-1.4 2.6-2.1.9-.7 1.7-1.4 2.6-2.1-.6-1.6-1.2-3.2-1.8-4.7-.5-1.4-1.1-2.8-1.7-4.1l-4-8.9-4.6-9c-.6-1.1-1.2-2.3-1.9-3.4-1.5-2.7-3.1-5.4-4.6-8.1-6.5-10.9-13.7-21.1-21.4-30.6-7.9-9.6-16.5-18.7-25.7-27.1-9.1-8.2-19-16-29.4-23.1l-7.7-5c-1.3-.8-2.6-1.6-3.8-2.3l-3.2-1.8 1.8-40.4c.1 0 .1 0 .2.1l10.3 5.3 9.5 5.5c1.5.9 2.9 1.7 4.4 2.6 3 1.9 6 3.9 9 5.8 11.9 8.1 23.2 16.9 33.6 26.4 10.4 9.6 20.3 20.1 29.3 31 8.8 10.8 17 22.6 24.5 35 1.8 3.1 3.6 6.2 5.4 9.4.7 1.2 1.3 2.5 2 3.8l5.3 10.4 3.1 6.9c.8-.8 1.6-1.6 2.4-2.5.8-.8 1.5-1.7 2.3-2.5 2-2.1 3.9-4.2 5.8-6.3.8-.9 1.5-1.7 2.3-2.6.8-.9 1.5-1.7 2.3-2.6l-5.2-10.3c-.7-1.4-1.5-2.9-2.3-4.3-1.8-3.3-3.7-6.6-5.7-9.9-8-13.2-16.8-25.8-26.2-37.4-9.7-11.7-20.2-22.9-31.4-33.2-11.2-10.1-23.2-19.6-35.9-28.2-3.2-2.1-6.3-4.2-9.5-6.2-1.6-1.1-3.3-2-5-3l-9.9-5.7-10.9-5.7c-1.4-.7-2.9-1.5-4.4-2.2-1.3-.6-2.6-1.2-4-1.8l1.8-39 2 .8c1.5.6 2.9 1.2 4.3 1.8 3.9 1.7 7.9 3.5 11.7 5.4 1.7.7 3.3 1.5 4.9 2.4l12.1 6.3 11.2 6.5c1.8 1 3.6 2.1 5.4 3.3l10.8 6.9 4.8 3.3c12.4 8.4 25.3 17.1 36.4 27.2l5.7 5.4 3.2 3.1.2-.3c8.5 8.7 17.6 17.8 27 26.5 12 11.2 28.3 24.7 44.6 37l5.6-7.5 5.7-7.7c-.4-.3-.7-.6-1.1-.8-15.7-11.5-31-24.1-42.2-34.6z"/></svg>