<svg class="theaxis" viewBox="0 0 702 40" xmlns="http://www.w3.org/2000/svg"><g class="markers"><rect x="0%" y="20" width="1" height="20"/><rect x="4.167%" y="30" width="1" height="10"/><rect x="8.333%" y="30" width="1" height="10"/><rect x="12.5%" y="30" width="1" height="10"/><rect x="16.667%" y="20" width="1" height="20"/><rect x="20.833%" y="30" width="1" height="10"/><rect x="25%" y="30" width="1" height="10"/><rect x="29.167%" y="30" width="1" height="10"/><rect x="33.333%" y="20" width="1" height="20"/><rect x="37.5%" y="30" width="1" height="10"/><rect x="41.667%" y="30" width="1" height="10"/><rect x="45.833%" y="30" width="1" height="10"/><rect x="50%" y="20" width="1" height="20"/><rect x="54.167%" y="30" width="1" height="10"/><rect x="58.333%" y="30" width="1" height="10"/><rect x="62.5%" y="30" width="1" height="10"/><rect x="66.667%" y="20" width="1" height="20"/><rect x="70.833%" y="30" width="1" height="10"/><rect x="75%" y="30" width="1" height="10"/><rect x="79.167%" y="30" width="1" height="10"/><rect x="83.333%" y="20" width="1" height="20"/><rect x="87.5%" y="30" width="1" height="10"/><rect x="91.667%" y="30" width="1" height="10"/><rect x="95.833%" y="30" width="1" height="10"/><rect x="100%" y="20" width="1" height="20" transform="translate(-1)"/></g><rect x="0%" y="100%" width="100%" height="1" transform="translate(0 -1)"/><g class="years" text-anchor="middle"><text alignment-baseline="hanging" text-anchor="start">2010</text><text x="16.667%" alignment-baseline="hanging">2014</text><text x="33.333%" alignment-baseline="hanging">2018</text><text x="50%" alignment-baseline="hanging">2022</text><text x="66.667%" alignment-baseline="hanging">2026</text><text x="83.333%" alignment-baseline="hanging">2030</text><text x="100%" alignment-baseline="hanging" text-anchor="end">2034</text></g></svg>