<svg viewBox="0 0 702 33" xmlns="http://www.w3.org/2000/svg"><path d="M.5 31.5h701v1H.5v-1z"/><path d="M701.5 22v10h-1V22h1zm-58.333 4.832v5h-1v-5h1zm-58.334-5v10h-1v-10h1zm-58.333 5v5h-1v-5h1zm-58.333-5v10h-1v-10h1zm-58.334 5v5h-1v-5h1zM351.5 21.8v10h-1v-10h1zm-58.333 5.032v5h-1v-5h1zm-58.334-5v10h-1v-10h1zm-58.333 5v5h-1v-5h1zm-58.333-5v10h-1v-10h1zm-58.334 5v5h-1v-5h1zM1.5 22v10h-1V22h1zm670.833 5v5h-1v-5h1zM614 27v5h-1v-5h1zm-58.333 0v5h-1v-5h1zm-58.334 0v5h-1v-5h1zM439 27v5h-1v-5h1zm-58.333 0v5h-1v-5h1zm-58.334 0v5h-1v-5h1zM264 27v5h-1v-5h1zm-58.333 0v5h-1v-5h1zm-58.334 0v5h-1v-5h1zM89 27v5h-1v-5h1zm-58.333 0v5h-1v-5h1zm645.265-13h-5.962v-.974l3.039-4.028c.459-.62.777-1.128.952-1.524.181-.4.271-.823.271-1.267 0-.566-.131-1.025-.395-1.377a1.24 1.24 0 00-1.04-.527c-.542 0-.962.188-1.26.564-.293.37-.439.908-.439 1.611h-1.297c0-.981.269-1.775.806-2.38.537-.606 1.267-.909 2.19-.909.849 0 1.518.262 2.007.784.488.518.732 1.209.732 2.073 0 1.055-.549 2.302-1.648 3.743l-2.373 3.105h4.417V14zm7.148-4.548c0 1.572-.229 2.749-.688 3.53-.459.776-1.18 1.165-2.161 1.165-.952 0-1.663-.374-2.131-1.121-.469-.747-.713-1.87-.733-3.37v-1.83c0-1.558.23-2.72.689-3.487.464-.766 1.184-1.15 2.16-1.15.962 0 1.673.364 2.132 1.092.464.727.708 1.828.732 3.303v1.868zm-1.296-1.853c0-1.128-.125-1.958-.374-2.49-.249-.538-.647-.806-1.194-.806-.532 0-.923.263-1.172.79-.249.523-.378 1.314-.388 2.374v2.197c0 1.123.13 1.968.388 2.534.259.562.655.842 1.187.842.527 0 .915-.266 1.165-.798.249-.532.378-1.345.388-2.439V7.6zm4.665.41h.828c.532 0 .942-.164 1.23-.49.288-.328.432-.775.432-1.341 0-1.25-.483-1.875-1.45-1.875-.464 0-.827.168-1.091.505-.264.337-.396.779-.396 1.326h-1.289c0-.855.259-1.558.777-2.11.522-.556 1.189-.835 1.999-.835.84 0 1.507.264 2 .791.493.523.74 1.265.74 2.227 0 .493-.13.955-.389 1.384a2.355 2.355 0 01-.996.938c1.006.37 1.509 1.203 1.509 2.497 0 .953-.266 1.712-.798 2.278-.528.562-1.219.842-2.073.842-.845 0-1.528-.266-2.051-.798-.517-.537-.776-1.257-.776-2.16h1.296c0 .566.137 1.018.41 1.354.274.332.647.498 1.121.498.483 0 .867-.163 1.15-.49.288-.327.432-.825.432-1.494 0-1.294-.613-1.941-1.838-1.941h-.777V8.009zm10.664 2.41h1.187v1.105h-1.187V14h-1.296v-2.476h-4.028v-.798l3.962-7.39h1.362v7.082zm-3.889 0h2.593V5.35l-2.593 5.069zM575.042 14h-5.962v-.974l3.039-4.028c.459-.62.777-1.128.953-1.524.18-.4.271-.823.271-1.267 0-.566-.132-1.025-.396-1.377a1.24 1.24 0 00-1.04-.527c-.542 0-.962.188-1.26.564-.293.37-.439.908-.439 1.611h-1.297c0-.981.269-1.775.806-2.38.537-.606 1.267-.909 2.19-.909.85 0 1.519.262 2.007.784.488.518.732 1.209.732 2.073 0 1.055-.549 2.302-1.648 3.743l-2.373 3.105h4.417V14zm7.148-4.548c0 1.572-.229 2.749-.688 3.53-.459.776-1.179 1.165-2.161 1.165-.952 0-1.663-.374-2.131-1.121-.469-.747-.713-1.87-.733-3.37v-1.83c0-1.558.23-2.72.689-3.487.464-.766 1.184-1.15 2.16-1.15.962 0 1.673.364 2.132 1.092.464.727.708 1.828.732 3.303v1.868zm-1.296-1.853c0-1.128-.125-1.958-.374-2.49-.249-.538-.647-.806-1.194-.806-.532 0-.922.263-1.171.79-.249.523-.379 1.314-.389 2.374v2.197c0 1.123.13 1.968.389 2.534.258.562.654.842 1.186.842.527 0 .916-.266 1.165-.798s.378-1.345.388-2.439V7.6zm4.665.41h.828c.532 0 .942-.164 1.23-.49.289-.328.433-.775.433-1.341 0-1.25-.484-1.875-1.451-1.875-.464 0-.827.168-1.091.505-.264.337-.395.779-.395 1.326h-1.29c0-.855.259-1.558.777-2.11.522-.556 1.189-.835 1.999-.835.84 0 1.507.264 2 .791.493.523.74 1.265.74 2.227 0 .493-.13.955-.389 1.384a2.344 2.344 0 01-.996.938c1.006.37 1.509 1.203 1.509 2.497 0 .953-.266 1.712-.798 2.278-.528.562-1.218.842-2.073.842-.845 0-1.528-.266-2.051-.798-.517-.537-.776-1.257-.776-2.16h1.296c0 .566.137 1.018.41 1.354.274.332.647.498 1.121.498.483 0 .867-.163 1.15-.49.288-.327.432-.825.432-1.494 0-1.294-.613-1.941-1.838-1.941h-.777V8.009zm11.455 1.443c0 1.572-.229 2.749-.688 3.53-.459.776-1.179 1.165-2.161 1.165-.952 0-1.662-.374-2.131-1.121-.469-.747-.713-1.87-.732-3.37v-1.83c0-1.558.229-2.72.688-3.487.464-.766 1.184-1.15 2.161-1.15.962 0 1.672.364 2.131 1.092.464.727.708 1.828.732 3.303v1.868zm-1.296-1.853c0-1.128-.124-1.958-.374-2.49-.249-.538-.646-.806-1.193-.806-.533 0-.923.263-1.172.79-.249.523-.379 1.314-.388 2.374v2.197c0 1.123.129 1.968.388 2.534.259.562.654.842 1.186.842.528 0 .916-.266 1.165-.798s.378-1.345.388-2.439V7.6zM460.15 14h-5.962v-.974l3.04-4.028c.459-.62.776-1.128.952-1.524.18-.4.271-.823.271-1.267 0-.566-.132-1.025-.396-1.377a1.238 1.238 0 00-1.04-.527c-.542 0-.962.188-1.26.564-.293.37-.439.908-.439 1.611h-1.296c0-.981.268-1.775.805-2.38.537-.606 1.267-.909 2.19-.909.85 0 1.519.262 2.007.784.488.518.732 1.209.732 2.073 0 1.055-.549 2.302-1.648 3.743l-2.373 3.105h4.417V14zm7.148-4.548c0 1.572-.229 2.749-.688 3.53-.459.776-1.179 1.165-2.161 1.165-.952 0-1.662-.374-2.131-1.121-.469-.747-.713-1.87-.733-3.37v-1.83c0-1.558.23-2.72.689-3.487.464-.766 1.184-1.15 2.161-1.15.961 0 1.672.364 2.131 1.092.464.727.708 1.828.732 3.303v1.868zm-1.296-1.853c0-1.128-.125-1.958-.374-2.49-.249-.538-.647-.806-1.193-.806-.533 0-.923.263-1.172.79-.249.523-.379 1.314-.388 2.374v2.197c0 1.123.129 1.968.388 2.534.258.562.654.842 1.186.842.528 0 .916-.266 1.165-.798s.378-1.345.388-2.439V7.6zM474.974 14h-5.962v-.974l3.04-4.028c.459-.62.776-1.128.952-1.524.181-.4.271-.823.271-1.267 0-.566-.132-1.025-.396-1.377a1.238 1.238 0 00-1.04-.527c-.542 0-.962.188-1.259.564-.293.37-.44.908-.44 1.611h-1.296c0-.981.268-1.775.805-2.38.538-.606 1.268-.909 2.19-.909.85 0 1.519.262 2.007.784.488.518.733 1.209.733 2.073 0 1.055-.55 2.302-1.648 3.743l-2.373 3.105h4.416V14zm5.962-10.671v1.15h-.212c-.865.02-1.541.312-2.029.878-.488.562-.769 1.41-.842 2.542.473-.596 1.079-.894 1.816-.894.786 0 1.409.325 1.868.974.463.645.695 1.492.695 2.542 0 1.118-.256 2.002-.769 2.651-.507.65-1.191.974-2.05.974-.865 0-1.56-.383-2.088-1.15-.527-.766-.791-1.784-.791-3.054v-.52c0-1.464.159-2.631.476-3.5.318-.87.784-1.514 1.399-1.934.62-.425 1.389-.645 2.307-.66h.22zm-1.487 4.804c-.351 0-.676.135-.974.403-.298.269-.513.61-.644 1.026v.534c0 .864.151 1.57.454 2.117.307.542.683.813 1.128.813.483 0 .861-.222 1.135-.667.273-.449.41-1.04.41-1.772 0-.723-.137-1.311-.41-1.765-.274-.46-.64-.689-1.099-.689zM343.447 14h-5.962v-.974l3.04-4.028c.459-.62.776-1.128.952-1.524.18-.4.271-.823.271-1.267 0-.566-.132-1.025-.396-1.377a1.238 1.238 0 00-1.04-.527c-.542 0-.962.188-1.26.564-.292.37-.439.908-.439 1.611h-1.296c0-.981.268-1.775.805-2.38.537-.606 1.267-.909 2.19-.909.85 0 1.519.262 2.007.784.488.518.733 1.209.733 2.073 0 1.055-.55 2.302-1.648 3.743l-2.373 3.105h4.416V14zm7.148-4.548c0 1.572-.229 2.749-.688 3.53-.459.776-1.179 1.165-2.161 1.165-.952 0-1.662-.374-2.131-1.121-.469-.747-.713-1.87-.732-3.37v-1.83c0-1.558.229-2.72.688-3.487.464-.766 1.184-1.15 2.161-1.15.962 0 1.672.364 2.131 1.092.464.727.708 1.828.732 3.303v1.868zm-1.296-1.853c0-1.128-.124-1.958-.373-2.49-.249-.538-.647-.806-1.194-.806-.533 0-.923.263-1.172.79-.249.523-.379 1.314-.388 2.374v2.197c0 1.123.129 1.968.388 2.534.259.562.654.842 1.186.842.528 0 .916-.266 1.165-.798s.378-1.345.388-2.439V7.6zM358.271 14h-5.962v-.974l3.04-4.028c.459-.62.776-1.128.952-1.524.181-.4.271-.823.271-1.267 0-.566-.132-1.025-.395-1.377a1.24 1.24 0 00-1.041-.527c-.542 0-.961.188-1.259.564-.293.37-.44.908-.44 1.611h-1.296c0-.981.268-1.775.806-2.38.537-.606 1.267-.909 2.189-.909.85 0 1.519.262 2.007.784.489.518.733 1.209.733 2.073 0 1.055-.55 2.302-1.648 3.743l-2.373 3.105h4.416V14zm7.412 0h-5.962v-.974l3.04-4.028c.459-.62.776-1.128.952-1.524.181-.4.271-.823.271-1.267 0-.566-.132-1.025-.395-1.377a1.24 1.24 0 00-1.04-.527c-.542 0-.962.188-1.26.564-.293.37-.44.908-.44 1.611h-1.296c0-.981.269-1.775.806-2.38.537-.606 1.267-.909 2.19-.909.849 0 1.518.262 2.006.784.489.518.733 1.209.733 2.073 0 1.055-.549 2.302-1.648 3.743l-2.373 3.105h4.416V14zm-140.319 0h-5.962v-.974l3.04-4.028c.459-.62.776-1.128.952-1.524.18-.4.271-.823.271-1.267 0-.566-.132-1.025-.396-1.377a1.238 1.238 0 00-1.04-.527c-.542 0-.962.188-1.26.564-.292.37-.439.908-.439 1.611h-1.296c0-.981.268-1.775.805-2.38.537-.606 1.267-.909 2.19-.909.85 0 1.519.262 2.007.784.488.518.733 1.209.733 2.073 0 1.055-.55 2.302-1.648 3.743l-2.373 3.105h4.416V14zm7.148-4.548c0 1.572-.229 2.749-.688 3.53-.459.776-1.179 1.165-2.161 1.165-.952 0-1.662-.374-2.131-1.121-.469-.747-.713-1.87-.732-3.37v-1.83c0-1.558.229-2.72.688-3.487.464-.766 1.184-1.15 2.161-1.15.962 0 1.672.364 2.131 1.092.464.727.708 1.828.732 3.303v1.868zm-1.296-1.853c0-1.128-.124-1.958-.373-2.49-.249-.538-.647-.806-1.194-.806-.533 0-.923.263-1.172.79-.249.523-.379 1.314-.388 2.374v2.197c0 1.123.129 1.968.388 2.534.259.562.654.842 1.186.842.528 0 .916-.266 1.165-.798s.378-1.345.388-2.439V7.6zm6.87 6.401h-1.304V4.97l-2.241 1.003v-1.23l3.34-1.458h.205V14zm9.038-7.88c0 .531-.119 1.005-.359 1.42a2.56 2.56 0 01-.952.974c.474.244.845.596 1.114 1.055.268.454.402.971.402 1.553 0 .918-.261 1.652-.783 2.204-.518.547-1.206.82-2.066.82-.859 0-1.55-.273-2.073-.82-.517-.552-.776-1.286-.776-2.204 0-.586.132-1.109.396-1.568a2.615 2.615 0 011.091-1.047 2.538 2.538 0 01-.945-.967 2.892 2.892 0 01-.344-1.42c0-.9.242-1.612.725-2.14.488-.527 1.13-.79 1.926-.79.791 0 1.428.26 1.912.783.488.523.732 1.238.732 2.146zm-1.091 4.972c0-.61-.144-1.098-.432-1.465a1.369 1.369 0 00-1.135-.556c-.479 0-.857.185-1.136.556-.273.372-.41.86-.41 1.465 0 .615.134 1.094.403 1.436.273.342.659.512 1.157.512s.882-.17 1.15-.512c.269-.342.403-.82.403-1.436zm-.198-4.95c0-.543-.127-.985-.381-1.327-.254-.341-.578-.512-.974-.512a1.16 1.16 0 00-.989.505c-.244.337-.366.781-.366 1.333 0 .557.125.999.374 1.326.249.327.576.49.981.49.415 0 .745-.165.989-.498.244-.332.366-.771.366-1.318zM109.471 14h-5.962v-.974l3.04-4.028c.459-.62.776-1.128.952-1.524.181-.4.271-.823.271-1.267 0-.566-.132-1.025-.396-1.377a1.238 1.238 0 00-1.04-.527c-.542 0-.961.188-1.259.564-.293.37-.44.908-.44 1.611h-1.296c0-.981.268-1.775.805-2.38.538-.606 1.268-.909 2.19-.909.85 0 1.519.262 2.007.784.489.518.733 1.209.733 2.073 0 1.055-.55 2.302-1.648 3.743l-2.373 3.105h4.416V14zm7.149-4.548c0 1.572-.23 2.749-.689 3.53-.459.776-1.179 1.165-2.16 1.165-.953 0-1.663-.374-2.132-1.121-.469-.747-.713-1.87-.732-3.37v-1.83c0-1.558.229-2.72.688-3.487.464-.766 1.184-1.15 2.161-1.15.962 0 1.672.364 2.131 1.092.464.727.708 1.828.733 3.303v1.868zm-1.297-1.853c0-1.128-.124-1.958-.373-2.49-.249-.538-.647-.806-1.194-.806-.532 0-.923.263-1.172.79-.249.523-.378 1.314-.388 2.374v2.197c0 1.123.129 1.968.388 2.534.259.562.654.842 1.187.842.527 0 .915-.266 1.164-.798.249-.532.378-1.345.388-2.439V7.6zm6.87 6.401h-1.303V4.97l-2.242 1.003v-1.23l3.34-1.458h.205V14zm8.46-3.582h1.186v1.106h-1.186V14h-1.297v-2.476h-4.028v-.798l3.963-7.39h1.362v7.082zm-3.889 0h2.592V5.35l-2.592 5.069zM6.819 14H.857v-.974l3.04-4.028c.458-.62.776-1.128.952-1.524.18-.4.27-.823.27-1.267 0-.566-.131-1.025-.395-1.377a1.24 1.24 0 00-1.04-.527c-.542 0-.962.188-1.26.564-.293.37-.44.908-.44 1.611H.689c0-.981.269-1.775.806-2.38.537-.606 1.267-.909 2.19-.909.85 0 1.519.262 2.007.784.488.518.732 1.209.732 2.073 0 1.055-.549 2.302-1.648 3.743l-2.373 3.105H6.82V14zm7.148-4.548c0 1.572-.23 2.749-.688 3.53-.46.776-1.18 1.165-2.16 1.165-.953 0-1.663-.374-2.132-1.121-.469-.747-.713-1.87-.733-3.37v-1.83c0-1.558.23-2.72.689-3.487.464-.766 1.184-1.15 2.16-1.15.962 0 1.673.364 2.132 1.092.464.727.708 1.828.732 3.303v1.868zm-1.296-1.853c0-1.128-.125-1.958-.374-2.49-.249-.538-.647-.806-1.194-.806-.532 0-.922.263-1.171.79-.25.523-.379 1.314-.389 2.374v2.197c0 1.123.13 1.968.389 2.534.258.562.654.842 1.186.842.527 0 .916-.266 1.165-.798s.378-1.345.388-2.439V7.6zM19.54 14h-1.304V4.97l-2.24 1.003v-1.23l3.339-1.458h.205V14zm9.25-4.548c0 1.572-.229 2.749-.688 3.53-.459.776-1.18 1.165-2.16 1.165-.953 0-1.663-.374-2.132-1.121-.469-.747-.713-1.87-.732-3.37v-1.83c0-1.558.23-2.72.688-3.487.464-.766 1.184-1.15 2.16-1.15.963 0 1.673.364 2.132 1.092.464.727.708 1.828.732 3.303v1.868zm-1.296-1.853c0-1.128-.124-1.958-.373-2.49-.25-.538-.647-.806-1.194-.806-.533 0-.923.263-1.172.79-.25.523-.379 1.314-.388 2.374v2.197c0 1.123.13 1.968.388 2.534.259.562.654.842 1.186.842.528 0 .916-.266 1.165-.798s.378-1.345.388-2.439V7.6z"/></svg>