<svg class="theaxis" viewBox="0 0 702 20" xmlns="http://www.w3.org/2000/svg"><defs><mask id="barstripes" fill="#000"><rect fill="#fff" width="100%" height="100%"/><rect x="4.167%" width="1" height="100%"/><rect x="8.333%" width="1" height="100%"/><rect x="12.5%" width="1" height="100%"/><rect x="16.667%" width="1" height="100%"/><rect x="20.833%" width="1" height="100%"/><rect x="25%" width="1" height="100%"/><rect x="29.167%" width="1" height="100%"/><rect x="33.333%" width="1" height="100%"/><rect x="37.5%" width="1" height="100%"/><rect x="41.667%" width="1" height="100%"/><rect x="45.833%" width="1" height="100%"/><rect x="50%" width="1" height="100%"/><rect x="54.167%" width="1" height="100%"/><rect x="58.333%" width="1" height="100%"/><rect x="62.5%" width="1" height="100%"/><rect x="66.667%" width="1" height="100%"/><rect x="70.833%" width="1" height="100%"/><rect x="75%" width="1" height="100%"/><rect x="79.167%" width="1" height="100%"/><rect x="83.333%" width="1" height="100%"/><rect x="87.5%" width="1" height="100%"/><rect x="91.667%" width="1" height="100%"/><rect x="95.833%" width="1" height="100%"/></mask></defs><g mask="url(#barstripes)"><rect class="base" fill="#cecece" width="100%" height="100%"/><rect class="progress" x="25%" width="41.666%" height="100%"/></g></svg>