<svg viewBox="0 0 51 50" fill="none" xmlns="http://www.w3.org/2000/svg"><path d="M25.5 0C11.719 0 .5 11.219.5 25s11.219 25 25 25 25-11.219 25-25-11.219-25-25-25zm0 47.917C12.865 47.917 2.583 37.635 2.583 25c0-12.635 10.282-22.917 22.917-22.917 12.635 0 22.917 10.282 22.917 22.917 0 12.635-10.282 22.917-22.917 22.917z" fill="#777" fill-opacity=".7"/><path d="M36.219 27.396l-9.677 9.677V10.458c0-.52-.375-.99-.886-1.062a1.043 1.043 0 00-1.198 1.031v26.656l-9.677-9.687a1.047 1.047 0 00-1.469.02 1.051 1.051 0 000 1.449l11.459 11.458a1.037 1.037 0 001.468 0l11.459-11.458a1.047 1.047 0 00-.021-1.47 1.064 1.064 0 00-1.458 0z" fill="#777"/></svg>