<svg xmlns="http://www.w3.org/2000/svg"><symbol id="icon-444" viewBox="0 0 113 121"><path d="M72.64 120.15H48.73v-24H.88v-96H24.8v72h23.91v-24h23.91l.02 72zm15.91-24.01h23.92v23.99H88.55V96.14zm0-95.99h23.91v88.39H88.55V.15z"/></symbol><symbol id="icon-4blog" viewBox="0 0 500 122"><path d="M72.64 120.15H48.73v-24H.88v-96H24.8v72h23.91v-24h23.91l.02 72zm15.91-24.01h23.92v23.99H88.55V96.14zm0-95.99h23.91v88.39H88.55V.15z"/><path d="M221.18 27.13v-26h-60.24v120h75.76V50.16h-15.52V27.13zm-36.85 0h13.46v23h-13.46v-23zm29 70.56h-29V73.48h29v24.21zm116.46-96.6v120h77.71v-120h-77.71zM383.47 97h-29.72V25.66h29.72V97zM276.56 1.09h-23.45v120h60.26V97.63h-36.82l.01-96.54zm222.89 49.07h-38.09v23.32h15.06v24.21h-29.11v-72h36.84V1.09h-60.24v120h75.79l-.28-70.93h.03z" fill="#f7b748"/></symbol><symbol id="icon-4blogok" viewBox="0 0 751 144"><path d="M71.64 143.15H47.73v-24H-.12v-96H23.8v72h23.91v-24h23.91zm15.91-24.01h23.92v23.99H87.55v-23.99zm0-95.99h23.91v88.39H87.55z" fill="#fff"/><path d="M220.18 50.13v-26h-60.24v120h75.76V73.16h-15.52zm-36.85 0h13.46v23h-13.46zm29 70.56h-29V96.48h29zm116.46-96.6v120h77.71v-120zM382.47 120h-29.72V48.66h29.72zm132.66-95.91v120h77.71v-120zM568.82 120H539.1V48.66h29.72zM275.56 24.09h-23.45v120h60.26v-23.46h-36.82zm222.89 49.07h-38.09v23.32h15.06v24.21h-29.11v-72h36.84v-24.6h-60.24v120h75.79l-.28-70.93zm188.46 0V35.72h-24v37.44h-29.66v23.32h29.69V73.16zm-23.97 23.32h23.97v47.61h-23.97zm-53.69-72.39h23.97v120h-23.97z" fill="#b2b2b2"/></symbol><symbol id="icon-aktak" viewBox="0 0 94 75"><path clip-rule="evenodd" d="M-.371-.518H27l4.998 7.437H82.36v10.297H68.599L63.6 24.652H14.64v36.132H-.37V-.518zm3 3v55.302h9.012V21.652h50.361L67 14.216h12.36V9.919H30.4l-4.998-7.437H2.629z"/><path clip-rule="evenodd" d="M67 14.216h27.371v61.302h-82.73V21.652h50.361L67 14.216zm1.599 3L63.6 24.652H14.64v47.866h76.731V17.216H68.6z"/></symbol><symbol id="icon-blog" viewBox="0 0 24 30"><path d="M5.6 27.3c0 1.6-1.2 2.6-2.8 2.6-1.4.1-2.8-1-2.8-2.7 0-1.7 1.6-2.7 3-2.7 1.5 0 2.6 1.3 2.6 2.8zM5.8.7c-.3.6-.6 4.3-.9 11-.3 6.7-.5 10.1-.5 10.2h-3C1.3 8.6 1.1 1.6.8.7h5zm9.5-.6c6.3 0 8.5 3.4 8.5 9.3 0 4.5-1.3 6.8-3.9 7.7 2.2.6 4.1 2.7 4.1 6.4 0 2.8-2 6.4-7.5 6.4H7.9c.3-1.1.4-2.2.4-3.3V3.4c0-1.5 0-2.6-.2-3.4 1.2.1 2.5.1 3.8.1h3.4zm-1.3 4c-1.1 0-1.6 1-1.6 3.1v7.4c0 .3.1.5.3.8h2.5c2.8 0 4.6-1.2 4.6-5.9 0-4.1-1.4-5.4-4.4-5.4H14zM15.7 19h-1.8c-.8 0-1.3 1.4-1.3 3.4v3.4c0 .5.3.8.7.8h2.8c2.4 0 3.9-1.3 3.9-3.5S18.6 19 15.7 19z"/></symbol><symbol id="icon-donate-bank" viewBox="0 0 440 398"><path d="M367.939 151.39c-2.199 0-4-1.8-4-4.01 0-2.2 1.801-3.99 4-3.99h32.88v-35.5H39.18v35.5h288.759c2.21 0 4 1.79 4 3.99 0 2.21-1.79 4-4 4H35.18a3.98 3.98 0 01-2.82-1.17 3.987 3.987 0 01-1.17-2.83v-43.49c0-1.05.42-2.08 1.17-2.83.74-.74 1.77-1.17 2.82-1.17h369.639c1.051 0 2.08.43 2.83 1.17.74.75 1.17 1.78 1.17 2.83v43.49c0 1.07-.42 2.08-1.17 2.83-.76.76-1.76 1.17-2.83 1.17l-36.88.01zm-20-.01c-2.199 0-4-1.79-4-4 0-2.2 1.801-3.99 4-3.99 2.21 0 4 1.79 4 3.99 0 2.21-1.79 4-4 4zm41.271 202.37h-89.86a3.999 3.999 0 110-8h85.86v-13.67H54.74v13.67h204.61c2.2 0 4 1.8 4 4 0 2.21-1.8 4-4 4H50.74c-1.05 0-2.08-.431-2.83-1.17a4.021 4.021 0 01-1.17-2.83v-21.67c0-1.05.42-2.08 1.17-2.83.75-.74 1.78-1.17 2.83-1.17h338.47c1.05 0 2.08.43 2.83 1.18.74.74 1.17 1.771 1.17 2.82v21.67c0 1.069-.42 2.069-1.17 2.83-.76.75-1.76 1.17-2.83 1.17zm-109.86 0a3.999 3.999 0 11-.002-7.998 3.999 3.999 0 01.002 7.998z"/><path d="M130.63 332.08H77.49c-1.06 0-2.09-.42-2.83-1.17a3.988 3.988 0 01-1.17-2.83v-164.3c0-1.05.42-2.09 1.17-2.83.74-.75 1.77-1.17 2.83-1.17h53.14c1.05 0 2.09.42 2.83 1.17.74.74 1.17 1.78 1.17 2.83v164.3c0 1.069-.42 2.069-1.17 2.83-.76.76-1.76 1.17-2.83 1.17zm-49.15-8h45.15v-156.3H81.48v156.3zm166.28 8h-53.12c-1.05 0-2.08-.42-2.83-1.17a4.03 4.03 0 01-1.17-2.83v-164.3c0-1.05.43-2.09 1.17-2.83.75-.75 1.78-1.17 2.83-1.17h53.12c1.05 0 2.08.42 2.82 1.17.75.74 1.17 1.77 1.17 2.83v164.3c0 1.069-.41 2.08-1.17 2.83a3.941 3.941 0 01-2.82 1.17zm-49.12-8h45.12v-156.3h-45.12v156.3zm236.98-216.19H4.38c-1.9 0-3.5-1.29-3.91-3.14-.41-1.85.51-3.7 2.23-4.49 42.53-19.63 80-36.91 119.66-55.2 30.06-13.86 60.91-28.09 95.26-43.94 1.06-.48 2.28-.49 3.34 0l162.919 74.66.18.09a4 4 0 011.79 5.21c-.41.88-1.12 1.59-2 1.98-.01.01-.01.01-.02.01-.431.19-.88.3-1.34.34a3.99 3.99 0 01-1.95-.36L219.3 9.16c-30.52 14.08-58.29 26.89-85.23 39.31C96.74 65.68 61.49 81.94 22.59 99.89h394.7l-.38-.18a3.935 3.935 0 01-2.091-2.24c-.369-1-.329-2.09.12-3.06a4.004 4.004 0 015.301-1.97l17.05 7.81a3.975 3.975 0 012.24 4.49 3.965 3.965 0 01-3.91 3.15zm-35.23-16.14c-.58 0-1.14-.12-1.67-.37-2-.92-2.88-3.29-1.97-5.3a4.033 4.033 0 013.649-2.33 4 4 0 011.66.36c2 .92 2.891 3.3 1.971 5.3a4.017 4.017 0 01-3.64 2.34z"/><path d="M254.84 167.78h-67.279c-1.05 0-2.09-.43-2.83-1.18a3.98 3.98 0 01-1.17-2.82v-16.39c0-1.06.42-2.09 1.17-2.83.74-.75 1.78-1.17 2.83-1.17h67.279c1.05 0 2.08.42 2.83 1.17.74.74 1.17 1.77 1.17 2.83v16.39c0 1.07-.42 2.07-1.17 2.82-.76.76-1.76 1.18-2.83 1.18zm-63.279-8h59.279v-8.4h-59.279v8.4zm180.409 8h-67.26c-1.05 0-2.08-.43-2.83-1.17a4.065 4.065 0 01-1.17-2.83v-16.39c0-1.06.43-2.09 1.17-2.83.75-.75 1.78-1.17 2.83-1.17h67.26c1.05 0 2.08.42 2.82 1.17.75.74 1.18 1.77 1.18 2.83v16.39c0 1.06-.42 2.07-1.18 2.83a3.98 3.98 0 01-2.82 1.17zm-63.26-8h59.25v-8.4h-59.25v8.4zm-171.05 8H70.38c-1.06 0-2.09-.43-2.83-1.17a4.021 4.021 0 01-1.17-2.83v-16.39c0-1.06.42-2.09 1.17-2.83.74-.75 1.77-1.18 2.83-1.18h67.28c1.05 0 2.08.43 2.83 1.18.74.74 1.17 1.77 1.17 2.83v16.39c0 1.05-.43 2.08-1.17 2.83-.75.74-1.78 1.17-2.83 1.17zm-63.28-8h59.28v-8.39H74.38v8.39z"/><path d="M364.939 332.08h-53.17c-1.06 0-2.09-.42-2.83-1.17a3.988 3.988 0 01-1.17-2.83v-164.3c0-1.06.42-2.09 1.17-2.83.74-.75 1.78-1.17 2.83-1.17h53.17c1.051 0 2.08.42 2.83 1.17.74.74 1.17 1.78 1.17 2.83v164.3c0 1.069-.42 2.069-1.17 2.83a3.959 3.959 0 01-2.83 1.17zm-49.169-8h45.17v-156.3h-45.17v156.3zm92.669 51.41H31.541c-1.06 0-2.09-.421-2.83-1.171a3.994 3.994 0 01-1.18-2.829v-21.74c0-1.05.43-2.08 1.18-2.83.74-.74 1.77-1.17 2.83-1.17H317.09c2.2 0 3.99 1.79 3.99 4s-1.79 4-3.99 4H35.53v13.74h368.909v-13.74h-47.35c-2.21 0-4.01-1.79-4.01-4s1.8-4 4.01-4h51.35c1.051 0 2.08.43 2.83 1.17.74.75 1.17 1.78 1.17 2.83v21.74c0 1.069-.42 2.079-1.17 2.829a3.956 3.956 0 01-2.83 1.171zm-71.349-21.74c-2.21 0-4.01-1.79-4.01-4s1.8-4 4.01-4c2.2 0 3.99 1.79 3.99 4s-1.79 4-3.99 4zM219.99 85.17h-.02c-8.23 0-15.97-3.21-21.78-9.03-5.82-5.82-9.02-13.55-9.02-21.78 0-17.02 13.82-30.87 30.8-30.88 8.259 0 16.009 3.22 21.839 9.07 5.82 5.83 9.021 13.57 9.021 21.81 0 4.15-.82 8.19-2.42 11.99a30.75 30.75 0 01-6.601 9.79 30.507 30.507 0 01-9.81 6.6 30.647 30.647 0 01-12.009 2.43zm-.02-53.69c-12.55.02-22.78 10.29-22.8 22.88.02 12.55 10.25 22.79 22.8 22.81 12.61 0 22.86-10.24 22.86-22.81-.02-12.59-10.28-22.86-22.86-22.88z"/><path d="M221.253 62.897c.899-.232 1.608-.606 2.18-1.287.544-.606.844-1.362.844-2.267 0-.749-.272-1.43-.735-2.037-.49-.531-1.226-.98-2.288-1.287v6.878h-.001zm-2.533-18.726c-.708.299-1.252.674-1.633 1.205-.382.606-.6 1.205-.6 1.886 0 .606.164 1.212.544 1.738.354.531.927.979 1.688 1.286v-6.115h.001zm0 18.42v-7.319c-2.26-.681-3.976-1.662-5.012-2.95-1.062-1.355-1.607-2.94-1.607-4.827 0-1.968.6-3.555 1.825-4.835 1.2-1.288 2.779-2.042 4.794-2.267v-1.738h2.533v1.738c1.879.225 3.378.831 4.494 1.886 1.09 1.062 1.771 2.492 2.07 4.228l-4.412.606c-.273-1.436-1.035-2.342-2.152-2.791v6.795c2.833.756 4.739 1.736 5.774 2.942 1.008 1.212 1.553 2.792 1.553 4.685 0 2.11-.653 3.847-1.935 5.284-1.334 1.512-3.05 2.342-5.393 2.716v3.323h-2.533v-3.248c-2.015-.3-3.677-.98-4.902-2.267-1.253-1.206-2.098-3.018-2.424-5.284l4.576-.524a5.043 5.043 0 001.062 2.41c.491.681 1.035 1.138 1.689 1.437zM214 332c-2.21 0-4-1.79-4-4V205.91c0-2.21 1.79-4 4-4s4 1.79 4 4V328c0 2.21-1.79 4-4 4zm-120 0c-2.21 0-4-1.79-4-4V205.91c0-2.21 1.79-4 4-4s4 1.79 4 4V328c0 2.21-1.79 4-4 4zm240 0c-2.21 0-4-1.79-4-4V205.91c0-2.21 1.79-4 4-4s4 1.79 4 4V328c0 2.21-1.79 4-4 4zm87.189 65.24a3.999 3.999 0 110-8h4.601v-13.75H14.15v13.75h367.039c2.2 0 4 1.8 4 4 0 2.21-1.8 4-4 4H10.15c-1.05 0-2.08-.421-2.83-1.171a4.027 4.027 0 01-1.17-2.829v-21.75c0-1.051.43-2.08 1.17-2.83.75-.74 1.78-1.17 2.83-1.17h419.64c1.06 0 2.09.43 2.83 1.18a3.98 3.98 0 011.17 2.82v21.75c0 1.069-.41 2.079-1.17 2.829a3.944 3.944 0 01-2.83 1.171h-8.601zm-20 0a3.999 3.999 0 11-.002-7.998 3.999 3.999 0 01.002 7.998z"/></symbol><symbol id="icon-donate-bank2" viewBox="0 0 292 291"><path d="M226.668 119.444a2.2 2.2 0 01-2.194-2.195c0-1.204.988-2.184 2.194-2.184h18.04v-19.43H46.292v19.43h158.43a2.19 2.19 0 012.195 2.184 2.192 2.192 0 01-2.195 2.189H44.097a2.188 2.188 0 01-2.19-2.189V93.446a2.2 2.2 0 01.643-1.549 2.21 2.21 0 011.547-.64h202.806c.577 0 1.141.235 1.553.64.406.41.642.975.642 1.55v23.802c0 .585-.231 1.138-.642 1.549-.417.416-.966.64-1.553.64l-20.235.006zm-10.973-.006a2.195 2.195 0 01-2.194-2.189c0-1.204.988-2.184 2.194-2.184a2.19 2.19 0 012.195 2.184 2.192 2.192 0 01-2.195 2.189zm22.644 110.759h-49.303a2.19 2.19 0 01-2.194-2.189c0-1.204.982-2.189 2.194-2.189h47.108v-7.482H54.829v7.482H167.09c1.207 0 2.195.985 2.195 2.189 0 1.21-.988 2.189-2.195 2.189H52.634a2.233 2.233 0 01-1.553-.64 2.197 2.197 0 01-.641-1.549v-11.86c0-.575.23-1.138.642-1.549a2.23 2.23 0 011.552-.64H238.34a2.2 2.2 0 012.195 2.189v11.86a2.192 2.192 0 01-2.195 2.189zm-60.276 0a2.19 2.19 0 01-2.194-2.189 2.194 2.194 0 014.389 0c0 1.21-.988 2.189-2.195 2.189z"/><path d="M96.467 218.337H67.31a2.192 2.192 0 01-2.195-2.189v-89.923a2.188 2.188 0 012.195-2.19h29.156c.576 0 1.146.23 1.552.641.406.405.642.974.642 1.549v89.923a2.192 2.192 0 01-2.194 2.189zM69.5 213.959h24.772v-85.545H69.5v85.545zm91.231 4.378h-29.145c-.576 0-1.141-.23-1.552-.64a2.203 2.203 0 01-.642-1.549v-89.923c0-.575.236-1.144.642-1.549a2.205 2.205 0 011.552-.641h29.145c.576 0 1.141.23 1.547.641.412.405.642.969.642 1.549v89.923c0 .585-.225 1.138-.642 1.549-.411.416-.966.64-1.547.64zm-26.95-4.378h24.755v-85.545h-24.755v85.545zM263.802 95.635H27.198a2.18 2.18 0 01-2.145-1.718 2.17 2.17 0 011.224-2.457C49.61 80.716 70.169 71.258 91.929 61.248c16.493-7.586 33.419-15.374 52.265-24.049a2.21 2.21 0 011.833 0l89.387 40.862.099.05a2.187 2.187 0 01.982 2.851c-.225.482-.615.87-1.097 1.084-.006.005-.006.005-.011.005a2.316 2.316 0 01-.736.186 2.196 2.196 0 01-1.07-.197L145.116 41.6c-16.745 7.706-31.981 14.717-46.762 21.514-20.481 9.42-39.822 18.319-61.164 28.143h216.555l-.208-.099a2.155 2.155 0 01-1.147-1.225 2.168 2.168 0 01.065-1.675 2.199 2.199 0 012.909-1.078l9.354 4.274a2.173 2.173 0 011.229 2.458 2.173 2.173 0 01-2.145 1.723zm-19.329-8.833c-.318 0-.626-.066-.916-.203a2.193 2.193 0 01-1.081-2.9 2.212 2.212 0 012.913-1.079 2.19 2.19 0 011.081 2.901 2.204 2.204 0 01-1.997 1.28z"/><path d="M164.616 128.414h-36.914a2.201 2.201 0 01-2.194-2.189v-8.971c0-.58.23-1.144.642-1.549a2.2 2.2 0 011.552-.64h36.914c.576 0 1.141.23 1.552.64.406.405.642.969.642 1.549v8.971c0 .585-.23 1.133-.642 1.543a2.18 2.18 0 01-1.552.646zm-34.719-4.379h32.524v-4.597h-32.524v4.597zm98.983 4.379h-36.903a2.23 2.23 0 01-1.552-.64 2.22 2.22 0 01-.642-1.549v-8.971c0-.58.235-1.144.642-1.549.411-.41.976-.64 1.552-.64h36.903c.576 0 1.141.23 1.547.64.412.405.648.969.648 1.549v8.971c0 .58-.231 1.133-.648 1.549-.411.41-.965.64-1.547.64zm-34.708-4.379h32.508v-4.597h-32.508v4.597zm-93.848 4.379H63.41a2.213 2.213 0 01-1.553-.64 2.2 2.2 0 01-.642-1.549v-8.971a2.196 2.196 0 012.195-2.194h36.914c.576 0 1.141.235 1.552.645.406.405.642.969.642 1.549v8.971c0 .574-.236 1.138-.642 1.549a2.23 2.23 0 01-1.552.64zm-34.72-4.379H98.13v-4.591H65.604v4.591z"/><path d="M225.022 218.337H195.85c-.581 0-1.147-.23-1.553-.64a2.18 2.18 0 01-.641-1.549v-89.923c0-.58.23-1.144.641-1.549a2.199 2.199 0 011.553-.641h29.172c.577 0 1.142.23 1.553.641.406.405.642.974.642 1.549v89.923a2.19 2.19 0 01-2.195 2.189zm-26.977-4.378h24.783v-85.545h-24.783v85.545zm50.844 28.137H42.101c-.582 0-1.147-.23-1.553-.641a2.183 2.183 0 01-.648-1.548v-11.899c0-.574.236-1.138.648-1.549a2.21 2.21 0 011.552-.64h156.67a2.19 2.19 0 010 4.378H44.29v7.52h202.404v-7.52h-25.979c-1.212 0-2.2-.979-2.2-2.189 0-1.209.988-2.189 2.2-2.189h28.174c.577 0 1.141.235 1.553.64.406.411.642.975.642 1.549v11.899a2.18 2.18 0 01-.642 1.548 2.172 2.172 0 01-1.553.641zm-39.146-11.899c-1.213 0-2.2-.979-2.2-2.189 0-1.209.987-2.189 2.2-2.189a2.19 2.19 0 010 4.378zM145.495 83.2h-.011a16.8 16.8 0 01-11.95-4.942 16.722 16.722 0 01-4.949-11.92c0-9.315 7.583-16.896 16.899-16.901 4.531 0 8.783 1.762 11.982 4.964a16.76 16.76 0 014.949 11.937c0 2.271-.449 4.482-1.327 6.562a16.833 16.833 0 01-3.622 5.358 16.747 16.747 0 01-5.382 3.613 16.853 16.853 0 01-6.589 1.33zm-.011-29.385c-6.886.011-12.499 5.632-12.51 12.523.011 6.869 5.624 12.473 12.51 12.484 6.918 0 12.542-5.604 12.542-12.484-.011-6.89-5.64-12.512-12.542-12.522z"/><path d="M146.188 71.01c.493-.127.882-.331 1.196-.704a1.8 1.8 0 00.463-1.24c0-.41-.149-.784-.403-1.116-.269-.29-.673-.536-1.256-.704v3.764zm-1.39-10.249c-.388.164-.687.37-.896.66-.21.332-.329.66-.329 1.032 0 .332.09.663.298.951.195.291.509.536.926.704v-3.347h.001zm0 10.082v-4.006c-1.24-.373-2.181-.91-2.75-1.615-.583-.741-.882-1.609-.882-2.641 0-1.078.33-1.946 1.002-2.647.658-.704 1.524-1.117 2.63-1.24v-.952h1.39v.952c1.031.123 1.853.454 2.465 1.032.598.581.972 1.364 1.136 2.314l-2.421.332c-.149-.786-.567-1.282-1.18-1.528v3.719c1.554.414 2.6.95 3.168 1.61.553.663.852 1.528.852 2.564 0 1.155-.359 2.106-1.062 2.892-.732.828-1.673 1.282-2.959 1.487v1.819h-1.39v-1.778c-1.105-.164-2.017-.536-2.689-1.24-.688-.66-1.151-1.653-1.33-2.893l2.511-.287c.074.496.284.95.582 1.32.27.372.568.622.927.786zm-2.59 147.45a2.19 2.19 0 01-2.194-2.189v-66.821a2.19 2.19 0 012.194-2.189 2.19 2.19 0 012.195 2.189v66.821a2.19 2.19 0 01-2.195 2.189zm-65.838 0a2.19 2.19 0 01-2.195-2.189v-66.821a2.19 2.19 0 012.194-2.189 2.19 2.19 0 012.195 2.189v66.821a2.19 2.19 0 01-2.195 2.189zm131.677 0a2.19 2.19 0 01-2.194-2.189v-66.821a2.19 2.19 0 012.194-2.189 2.19 2.19 0 012.195 2.189v66.821a2.19 2.19 0 01-2.195 2.189zM255.884 254a2.191 2.191 0 01-2.194-2.189c0-1.204.982-2.189 2.194-2.189h2.525v-7.526H32.559v7.526h201.379c1.207 0 2.195.985 2.195 2.189a2.195 2.195 0 01-2.195 2.189H30.364a2.21 2.21 0 01-1.553-.641 2.2 2.2 0 01-.642-1.548v-11.904c0-.575.236-1.139.642-1.549a2.234 2.234 0 011.553-.641h230.24a2.197 2.197 0 012.194 2.19v11.904c0 .585-.225 1.138-.642 1.548a2.163 2.163 0 01-1.552.641h-4.72zm-10.973 0a2.191 2.191 0 01-2.194-2.189 2.194 2.194 0 014.389 0 2.195 2.195 0 01-2.195 2.189z"/></symbol><symbol id="icon-donate-bankcard" viewBox="0 0 150.2 150.2"><style>.st3{fill:#606161}</style><g id="Layer_2"><path class="st3" d="M23.2 93.9h59.3V78.5H23.2v15.4zm4.2-11.2h50.7v6.9H27.4v-6.9zm66.5 11.2h18.5V78.5H93.9v15.4zm4.3-11.2h10v6.9h-10v-6.9z"/><path class="st3" d="M124.1 45v-4.2c0-4.3-3.5-7.8-7.8-7.8h-94c-4.3 0-7.8 3.5-7.8 7.8v56.7c0 4.3 3.5 7.8 7.8 7.8h3.9v.3c0 6.5 5.3 11.7 11.7 11.7H124c6.5 0 11.7-5.3 11.7-11.7V56.7c0-6.4-5.2-11.7-11.6-11.7zM18.7 97.4v-35h91.1v-4.3H18.7V40.8c0-2 1.6-3.5 3.5-3.5h94c2 0 3.5 1.6 3.5 3.5v4.1h-96v4.3h95.4v.1h.4v11.1h.2v37.1c0 2-1.6 3.5-3.5 3.5h-94c-1.9 0-3.5-1.6-3.5-3.6zm112.8 8.1c0 4.1-3.4 7.5-7.5 7.5H37.9c-4.1 0-7.5-3.4-7.5-7.5v-.3h85.9c4.3 0 7.8-3.5 7.8-7.8V49.2c4.1 0 7.4 3.4 7.4 7.5v48.8z"/></g></symbol><symbol id="icon-donate-bankcards" viewBox="0 0 109 72"><path fill-rule="evenodd" clip-rule="evenodd" d="M.602 6.166C.602 3.128 3.128.602 6.166.602h68.4c3.038 0 5.564 2.526 5.564 5.564v12.845h23.032c3.039 0 5.565 2.527 5.565 5.565v41.258c0 3.038-2.526 5.565-5.565 5.565H34.763c-3.038 0-5.565-2.527-5.565-5.565V52.989H6.166c-3.038 0-5.564-2.526-5.564-5.565V6.166zm28.596 43.989H6.166c-1.472 0-2.73-1.258-2.73-2.73V6.165c0-1.472 1.258-2.73 2.73-2.73h68.4c1.473 0 2.73 1.258 2.73 2.73V19.01H34.763c-3.038 0-5.565 2.527-5.565 5.565v25.579zm2.835 2.834v12.845c0 1.473 1.257 2.73 2.73 2.73h68.399c1.473 0 2.731-1.257 2.731-2.73V41.492H32.106V52.99h-.073zm.073-14.331h73.787v-6.844H32.106v6.844zm0-9.678h73.787v-4.404c0-1.473-1.258-2.73-2.731-2.73H34.836c-1.473 0-2.73 1.257-2.73 2.73v4.404zM8.97 41.749v-6.622h2.834v6.622H8.97zm4.002 0v-6.622h2.834v6.622h-2.834zm3.93 0v-6.622h2.834v6.622H16.9zm3.928 0v-6.622h2.835v6.622H20.83zm4.002 0v-6.622h2.835v6.622h-2.835zM35.53 52.192h42.855v10.984H35.53V52.192zm2.834 2.835v5.315H75.55v-5.315H38.363zm48.683-2.835h13.241v10.984h-13.24V52.192zm2.835 2.835v5.315h7.57v-5.315h-7.57z" fill="#fff"/></symbol><symbol id="icon-donate-egyszazalek" viewBox="0 0 150.2 150.2"><style>.st3{fill:#606161}</style><g id="Layer_2"><path class="st3" d="M44.9 115.5h-13V53.7c-4.1 2.4-9.2 4.5-12.6 5.2l-.7.1-.9-4.2.7-.1c3.8-.8 10.6-3.9 14.4-6.6l3.4-2.4v65.5h4.6V40.7H37c-5.3 4.8-12.4 9-17.7 10.6l-.4.1-1.3-4.1.4-.1c4.9-1.5 11.6-5.6 16.6-10.1l.8-.7h9.7v79.1z"/><path transform="rotate(-61.079 93.363 74.685)" class="st3" d="M49.9 72.6h86.8v4.3H49.9z"/><path class="st3" d="M74.4 70.4c-.9 0-1.8-.1-2.7-.2-5.3-.7-10-3.4-13.1-7.4-3.2-4.1-4.5-9.2-3.9-14.5s3.3-9.9 7.4-13.1c4.1-3.2 9.3-4.6 14.6-3.9 5.3.7 10 3.3 13.1 7.3 3.1 4 4.5 9.3 3.8 14.6-.7 5.3-3.4 10.1-7.4 13.2-3.2 2.6-7.4 4-11.8 4zm-.2-35c-3.5 0-6.8 1.1-9.5 3.2-3.2 2.5-5.2 6.1-5.8 10.2-.5 4.1.5 8.2 3 11.4 2.4 3.1 6.2 5.2 10.3 5.8 4.2.6 8.3-.5 11.4-2.9 3.1-2.4 5.2-6.2 5.7-10.4s-.5-8.4-2.9-11.5c-2.5-3.2-6.1-5.2-10.3-5.7-.6 0-1.3-.1-1.9-.1zm39.2 83.6c-.9 0-1.8-.1-2.7-.2-5.3-.7-10-3.4-13.1-7.4-6.5-8.4-4.9-21 3.5-27.6 8.5-6.6 21.2-5 27.7 3.4 3.1 4 4.5 9.3 3.8 14.6s-3.4 10.1-7.4 13.2c-3.2 2.7-7.4 4-11.8 4zm-.2-34.9c-3.3 0-6.7 1-9.5 3.2-6.6 5.1-7.9 15-2.8 21.6 2.4 3.1 6.2 5.2 10.3 5.8 4.1.6 8.3-.5 11.4-2.9 3.1-2.4 5.2-6.2 5.7-10.4s-.5-8.4-2.9-11.5c-2.9-3.8-7.6-5.8-12.2-5.8z"/><path class="st3" d="M74.4 63.5c-.6 0-1.2 0-1.8-.1-3.4-.5-6.5-2.2-8.5-4.8-4.2-5.5-3.2-13.6 2.3-17.8 5.5-4.3 13.7-3.2 17.9 2.2 2 2.6 2.9 6 2.5 9.5-.4 3.4-2.2 6.5-4.8 8.5-2.1 1.6-4.8 2.5-7.6 2.5zm-.2-21.1c-1.8 0-3.7.6-5.2 1.8-3.6 2.8-4.3 8.2-1.5 11.9 1.3 1.7 3.4 2.9 5.7 3.2 2.3.3 4.6-.3 6.2-1.6 3.5-2.7 4.3-8.5 1.5-12-1.6-2.2-4.1-3.3-6.7-3.3zm39 69.7c-.6 0-1.2 0-1.8-.1-3.4-.5-6.5-2.2-8.5-4.8-4.2-5.5-3.2-13.6 2.3-17.8 5.5-4.3 13.7-3.2 17.9 2.2 2 2.6 2.9 6 2.5 9.5-.4 3.4-2.2 6.5-4.8 8.5-2.1 1.7-4.8 2.5-7.6 2.5zm-.1-21.1c-1.8 0-3.7.6-5.2 1.8-3.6 2.8-4.3 8.2-1.5 11.9 1.3 1.7 3.4 2.9 5.7 3.2 2.3.3 4.6-.3 6.2-1.6 3.5-2.7 4.3-8.5 1.5-12-1.6-2.2-4.2-3.3-6.7-3.3z"/></g></symbol><symbol id="icon-donate-mappa" viewBox="0 0 150.2 150.2"><style/><path d="M121.9 35v-9.5H87.5l-6.2 10.6H18.8v76.7h9.5v9.5h84c10.5 0 19.1-8.6 19.1-19.1V35h-9.5zm-98.8 73.5V40.3h60.6l6.2-10.6h27.7V35H97l-6.2 10.6H28.3v62.9h-5.2zm94.6-69.3v63.6c0 3.2-2.6 5.8-5.8 5.8H32.6V49.8h60.6l6.2-10.6h18.3zm9.5 64c0 8.2-6.7 14.8-14.8 14.8H32.6v-5.2H112c5.5 0 10-4.5 10-10V39.2h5.2v64z" fill="#606161" id="Layer_2"/></symbol><symbol id="icon-donate-merch" viewBox="0 0 13 17"><path d="M5.408.795a2.384 2.384 0 00-2.38 2.38c0 .448.126.866.343 1.225L1.297 6.472a1.322 1.322 0 00-.387.936v1.059a.265.265 0 10.53 0v-1.06c0-.21.083-.41.232-.56l2.024-2.022a2.37 2.37 0 001.712.731c.353 0 .353-.529 0-.529-.529 0-1.003-.22-1.34-.574l.78-.78a.794.794 0 01.548-.234.794.794 0 01.572.235l3.177 3.173c.148.148.232.35.232.56v4.235a.264.264 0 00.53 0V9.456l1.48 2.565a.79.79 0 01-.29 1.084l-1.19.688v-1.092a.265.265 0 00-.53 0v2.115a.791.791 0 01-.793.795H2.232a.79.79 0 01-.792-.795V9.525a.265.265 0 10-.53 0v5.291c0 .728.595 1.323 1.322 1.323h6.352c.727 0 1.322-.596 1.322-1.323v-.41l1.457-.844c.63-.364.846-1.175.483-1.805l-1.94-3.359v-.99c0-.35-.138-.687-.386-.936l-2.072-2.07a2.37 2.37 0 00.341-1.226A2.384 2.384 0 005.41.795zm0 .527a1.849 1.849 0 011.65 2.691L6.345 3.3a1.325 1.325 0 00-.955-.39 1.325 1.325 0 00-.917.39l-.715.714a1.849 1.849 0 011.651-2.691zM3.291 11.377a.265.265 0 100 .529h2.117a.263.263 0 00.27-.265.265.265 0 00-.27-.264H3.291zm0 1.058a.265.265 0 100 .53h4.235a.265.265 0 100-.53H3.29zm-.025 1.059a.265.265 0 00.025.529h3.176a.265.265 0 100-.53H3.266zm4.259 0a.264.264 0 100 .529.264.264 0 000-.53z"/></symbol><symbol id="icon-donate-onkentes" viewBox="0 0 150.2 150.2"><style>.st3{fill:#606161}</style><g id="Layer_2"><path class="st3" d="M110 120.2l2.9-13.7L87 77.2l6.3-7.3c6-7.2 9.7-13.5 9.7-22.5 0-15.4-12.6-27.9-28-27.9-15.5 0-28 12.5-28 27.9 0 8.2 2.9 13.9 7.9 20.3 0 .1.1.1.1.2l1.5 1.8 3.7 4.5 6.1 7.3 5.5 6.5-27.3 33.3-3.5 4.2 1.1 5.4 32.5-39.5 33.3 39.4 1.1-5.1-5.3-6.5-26-30.8-10.5-12.3-7.6-9.1c-.4-.5-.9-1.1-1.3-1.6-1.3-2.6-2.7-5.6-2.7-8 0-5.4 2.2-10.2 5.7-13.8-.5 1.4-.7 2.9-.7 4.4 0 7.1 10.6 18.2 12.7 20.3l.1-.1 9.1 10.2 25.8 29.1-1.8 8.3 3.5 4.4zM51.7 53.3c-.4-1.8-.7-3.7-.7-5.9 0-13 10.7-23.6 23.8-23.6s23.8 10.6 23.8 23.6c0 7.8-3.2 13.1-8.7 19.8L84.1 74l-6.3-7c.6-.7 1.5-1.6 2.3-2.6L78.5 63l1.6 1.4c.4-.5.8-1 1.3-1.5 5.1-6.2 7.7-11.2 7.7-14.7 0-1.6-.3-3-.7-4.4 2.4 2.4 4.1 5.4 5 8.8l4.1-1.1c-2.7-10.4-12-17.7-22.7-17.7-11.5-.1-21.1 8.4-23.1 19.5zm23.2-15.2c5.5 0 10 4.5 10 10 0 2.4-2.5 6.8-6.7 12-.4.5-.8 1-1.2 1.4-.8.9-1.5 1.7-2.1 2.4-4.5-4.8-10-12-10-15.8-.1-5.5 4.4-10 10-10z"/><path class="st3" d="M62.6 83.9l-2.7-3.4-22.6 28 1.1 5.2.1.1 4-4.9z"/></g></symbol><symbol id="icon-donate-online" viewBox="0 0 150.2 150.2"><style>.st3{fill:#606161}</style><g id="Layer_2"><path class="st3" d="M58.3 78.7H17.4V63.6h40.8v15.1zm-36.6-4.3H54v-6.6H21.7v6.6zm72.8 54H69.8v-4.3H91l5.1-24.7h9.2c15.6 0 27.1-6.4 31.7-17.5l3.9 1.6c-5.3 12.8-18.2 20.1-35.6 20.1h-5.7l-5.1 24.8z"/><path class="st3" d="M87.3 120.1H64.1l12.6-59.6 4.2.9-11.5 54.5h14.5L89 91.1h14.5c17.1 0 27.3-8.4 27.3-22.3 0-11.1-8.4-17.9-22-17.9h-91v-4.3h91c15.9 0 26.2 8.7 26.2 22.2 0 16.4-12.1 26.6-31.5 26.6h-11l-5.2 24.7zm14.1-38.3H91l4.7-21.7h8.7c9 0 10.9 5.2 10.9 9.6 0 5.6-2.4 12.1-13.9 12.1zm-5.1-4.2h5.1c8.6 0 9.7-4.2 9.7-7.8 0-3.2-1.1-5.4-6.6-5.4h-5.3l-2.9 13.2z"/><path class="st3" d="M101.9 21.8h-86l-6.6 6.7v56.9l6.6 6.7h46.8l.9-4.3H17.7l-4.2-4.1V30.2l4.2-4.1h82.4l4.2 4.1V38h4.2v-9.5z"/><path class="st3" d="M17.7 33.8h82v4.3h-82z"/></g></symbol><symbol id="icon-donate-szponzor" viewBox="0 0 150.2 150.2"><style>.st3{fill:#606161}</style><g id="Layer_2"><path class="st3" d="M105.2 63.7l-.2 4.2 9.8.5 20.9-14.6-2.4-3.5-19.7 13.8zM45.5 45l-10.1 7.7c-2.6 2-3.5 5.5-2 8.5 1 2 3.1 3.3 5.3 3.3.3 0 .6 0 1-.1l4.3-.5c6.5-.8 12.7-2.9 18.4-6.2l1.1-.6c2.9 2.2 10.4 7.2 21.3 7.2 3.5 0 7.3-.5 11.5-1.8L95 58.4c-16.5 5.1-27.5-3.5-29.6-5.3-.3-.1-.4-.2-.4-.2l-.2.3-.8-1.4-3.8 2.2c-5.2 3-10.8 4.9-16.8 5.6l-4.4.6h-.1c-.7.1-1.4-.2-1.7-.9-.5-1.1-.2-2.4.8-3.2l13.6-10.4c5.5-4.1 12.2-6.1 19-5.8l26.1 1.2 20.9-14.6-2.4-3.5-19.9 13.8-24.6-1.1c-7-.3-13.9 1.5-19.7 5.3l-6-.2-15.1-10.6-2.4 3.5L43.6 45h1.9z"/><path class="st3" d="M122.9 89.3l-7.2-6.7 4.9-7.3L142 60.5l-2.4-3.5-22.1 15.3-5 7.4-4-3.7-5.6-6.2c-.2-.2-.4-.4-.6-.5l-2.2-2.4-3.1 2.8 2.3 2.6.3.3.1.1 5.6 6.2.3.3 14.3 13.3c.2.3 1.3 1.5 1.4 1.6 2.3 2.9 1.7 4.5.8 5.6l-.1.2c-1.7 1.6-4.4.5-7.4-.9l-.6-.3c-.2-.1-1.4-.8-1.7-1.1l-8.7-7.4-1.4 1.6-1.5 1.5 10.9 10.8c1.5 1.5 1.5 4 0 5.6-1.6 1.6-4.2 1.8-6.3.5l-9.1-6.9L95 105l-1.6 1.4 5.1 6c1.8 2.3 2 4.3.6 5.8-.7.8-1.7 1.3-2.7 1.3-1.1.1-2.1-.3-2.8-1l-6.9-6.2-1.4 1.6-1.8 1.1 1.9 3.2c1.1 2.4.8 2.9.2 3.6l-.4.4c-.4.4-.9.7-1.5.7s-1.2-.2-1.6-.6l-7.4-4.6.3-.5c.9-1.5 1.1-3.3.7-5-.5-1.7-1.5-3.1-3.1-4-1.5-.9-3.3-1.1-5-.7-.2.1-.5.1-.7.2v-.7c-.2-2.2-1.3-4.1-3-5.5s-3.8-2-6-1.7c-.5.1-.9.2-1.4.3.8-2.8.1-5.9-2.1-8.1-2.4-2.4-5.9-3-8.8-1.8.3-1.7.1-3.4-.6-4.9l-.2-.3c-.9-1.9-2.5-3.4-4.6-4.1-2-.7-4.2-.6-6.1.3l-1.9.8-3.8-6.4-17.6-13L8.2 66l16.9 12.5 3.2 5.3c-1.6 1-2.8 2.4-3.4 4.2-.7 2-.6 4.2.3 6.1l.2.3c.9 1.9 2.5 3.4 4.6 4.1.9.3 1.8.5 2.7.5 1.2 0 2.3-.3 3.4-.8l.7-.3-2.5 2.5c-3.2 3.2-3.2 8.4 0 11.6 1.6 1.6 3.7 2.4 5.8 2.4 1.4 0 2.8-.4 4.1-1.1-.8 1.5-1.2 3.2-1 4.9.2 2.2 1.3 4.1 3 5.5 1.5 1.2 3.3 1.8 5.1 1.8 2.4 0 4.8-1.1 6.4-3.1l1.5-1.8c0 .4.1.8.2 1.3.5 1.7 1.5 3.1 3.1 4 1 .6 2.1.9 3.3.9.6 0 1.1-.1 1.7-.2 1.7-.5 3.1-1.5 4-3.1l1.2-2.1 6.8 4.2c1.2 1 2.6 1.5 4.1 1.5h.4c1.7-.1 3.3-.9 4.5-2.2l.4-.4c1-1.1 1.4-2.2 1.5-3.2l.4.4c1.5 1.3 3.4 2.1 5.4 2.1h.5c2.2-.1 4.2-1.1 5.6-2.7 1.7-1.9 2.3-4.3 1.8-6.7 1.4.7 2.8 1 4.3 1 2.3 0 4.6-.9 6.3-2.6 2.2-2.2 2.9-5.5 2-8.3 1 .3 2.1.5 3.2.5 1.8 0 3.6-.5 5.2-2.1l.4-.5c1.7-2.2 2.9-5.9-.8-10.8-.1-.2-1.5-2-1.8-2.3zm-88.6 5.1c-1.9.9-4.1.1-5-1.8l-.2-.3c-.4-.9-.5-1.9-.1-2.9.3-.9 1-1.7 1.9-2.1l5-2.4c.5-.2 1.1-.4 1.6-.4.4 0 .9.1 1.3.2.9.3 1.7 1 2.1 1.9l.2.3c.4.9.5 1.9.1 2.9-.3.9-1 1.7-1.9 2.1l-5 2.5zm3 14.7c-1.5-1.5-1.5-4 0-5.6l8.5-8.5c.8-.8 1.8-1.2 2.8-1.2 1 0 2 .4 2.8 1.2 1.5 1.5 1.5 4 0 5.6l-8.5 8.5c-1.6 1.5-4.1 1.5-5.6 0zm17 10.8c-1.4 1.7-3.8 2-5.5.6-.8-.7-1.3-1.6-1.5-2.6-.1-1 .2-2.1.8-2.9l7.5-9.4c.7-.8 1.6-1.3 2.6-1.5h.5c.9 0 1.7.3 2.4.9.8.7 1.3 1.6 1.5 2.6.1 1-.2 2.1-.8 2.9l-7.5 9.4zm13.4 1.5c-.3.5-.8.9-1.4 1.1-.6.2-1.2.1-1.8-.2-1.1-.6-1.5-2.1-.9-3.2l3.6-6.3c.3-.5.8-.9 1.4-1.1.2-.1.4-.1.6-.1.4 0 .8.1 1.2.3.5.3.9.8 1.1 1.4.2.6.1 1.2-.2 1.8l-3.6 6.3z"/><path transform="rotate(-53.806 24.605 62.065)" class="st3" d="M22.5 49.4h4.3v25.4h-4.3z"/><path class="st3" d="M92 90.5c-1.8 1-3.3 1.2-4.8 1.4-2.7.4-5.4.8-7.9 5.8-.5 1-.9 1.9-1.2 2.6-1 2.3-1.5 3.4-3.3 4.5l2.3 3.6c2.8-1.9 3.7-3.8 4.8-6.4.3-.7.7-1.5 1.1-2.5 1.5-3 2.4-3.1 4.8-3.5 1.6-.2 3.6-.6 6.1-1.8 5.5-2.9 6.1-11.2 6.1-11.6l-4.2-.3c0 1.8-1 6.8-3.8 8.2z"/></g></symbol><symbol id="icon-dot" viewBox="0 0 16 16"><circle cx="7.63" cy="7.63" r="7.63" fill-rule="evenodd"/></symbol><symbol id="icon-download" viewBox="0 0 24 24"><path d="M19 9h-4V3H9v6H5l7 7 7-7zM5 18v2h14v-2H5z"/></symbol><symbol id="icon-dropdown-white"><path stroke="#fff" d="M14 8l-4 4-4-4" fill="none" fill-rule="evenodd" stroke-linecap="round"/></symbol><symbol id="icon-dropdown"><path stroke="#000" d="M14 8l-4 4-4-4" fill="none" fill-rule="evenodd" stroke-linecap="round"/></symbol><symbol id="icon-external-link" viewBox="0 0 74 74"><path d="M56.8 63.2h-46v-46h27v-10h-32c-2.8 0-5 2.2-5 5v56c0 2.8 2.2 5 5 5h56c2.8 0 5-2.2 5-5v-32h-10v27z"/><path d="M49.8 10.9h6.3L32 35l7 7 24.2-24.1v6.3h10V.9H49.8z"/></symbol><symbol id="icon-facebook-bull"><path d="M9.5 0C4.275 0 0 4.275 0 9.5S4.275 19 9.5 19 19 14.725 19 9.5 14.725 0 9.5 0zm2.494 6.353h-.89c-.713 0-.832.356-.832.831v1.07h1.662l-.237 1.662h-1.425v4.334H8.55V9.916H7.066V8.253H8.55V7.006c-.06-1.484.831-2.256 2.137-2.256.594 0 1.129.06 1.307.06v1.543z"/></symbol><symbol id="icon-facebook" viewBox="0 0 20 20"><path d="M17 1H3c-1.1 0-2 .9-2 2v14c0 1.101.9 2 2 2h7v-7H8V9.525h2v-2.05c0-2.164 1.212-3.684 3.766-3.684l1.803.002v2.605h-1.197c-.994 0-1.372.746-1.372 1.438v1.69h2.568L15 12h-2v7h4c1.1 0 2-.899 2-2V3c0-1.1-.9-2-2-2z"/></symbol><symbol id="icon-flickr" viewBox="0 0 20 20"><path d="M5 14c-2.188 0-3.96-1.789-3.96-4 0-2.211 1.772-4 3.96-4 2.187 0 3.96 1.789 3.96 4 0 2.211-1.773 4-3.96 4zm10 0c-2.188 0-3.96-1.789-3.96-4 0-2.211 1.772-4 3.96-4 2.187 0 3.96 1.789 3.96 4 0 2.211-1.773 4-3.96 4z"/></symbol><symbol id="icon-instagram" viewBox="0 0 18 18"><path d="M17.946 5.29a6.606 6.606 0 00-.418-2.185 4.412 4.412 0 00-1.039-1.594A4.412 4.412 0 0014.895.472a6.606 6.606 0 00-2.184-.418C11.75.01 11.444 0 9 0S6.25.01 5.29.054a6.606 6.606 0 00-2.185.418A4.412 4.412 0 001.51 1.511 4.412 4.412 0 00.472 3.105a6.606 6.606 0 00-.418 2.184C.01 6.25 0 6.556 0 9s.01 2.75.054 3.71a6.606 6.606 0 00.418 2.185 4.412 4.412 0 001.039 1.594 4.411 4.411 0 001.594 1.039 6.606 6.606 0 002.184.418C6.25 17.99 6.556 18 9 18s2.75-.01 3.71-.054a6.606 6.606 0 002.185-.418 4.602 4.602 0 002.633-2.633 6.606 6.606 0 00.418-2.184C17.99 11.75 18 11.444 18 9s-.01-2.75-.054-3.71zm-1.62 7.347a4.978 4.978 0 01-.31 1.67 2.98 2.98 0 01-1.708 1.709 4.979 4.979 0 01-1.671.31c-.95.043-1.234.052-3.637.052s-2.688-.009-3.637-.052a4.979 4.979 0 01-1.67-.31 2.788 2.788 0 01-1.036-.673 2.788 2.788 0 01-.673-1.035 4.978 4.978 0 01-.31-1.671c-.043-.95-.052-1.234-.052-3.637s.009-2.688.052-3.637a4.979 4.979 0 01.31-1.67 2.788 2.788 0 01.673-1.036 2.788 2.788 0 011.035-.673 4.979 4.979 0 011.671-.31c.95-.043 1.234-.052 3.637-.052s2.688.009 3.637.052a4.979 4.979 0 011.67.31 2.788 2.788 0 011.036.673 2.788 2.788 0 01.673 1.035 4.979 4.979 0 01.31 1.671c.043.95.052 1.234.052 3.637s-.009 2.688-.052 3.637zM9 4.378A4.622 4.622 0 1013.622 9 4.622 4.622 0 009 4.378zM9 12a3 3 0 113-3 3 3 0 01-3 3zm5.884-7.804a1.08 1.08 0 11-1.08-1.08 1.08 1.08 0 011.08 1.08z"/></symbol><symbol id="icon-linkedin" viewBox="0 0 20 20"><path d="M5 3c0 1.1-.7 2-2 2-1.2 0-2-.9-2-1.9C1 2 1.8 1 3 1s2 .9 2 2zM1 19h4V6H1v13zM14.6 6.2c-2.1 0-3.3 1.2-3.8 2h-.1l-.2-1.7H6.9c0 1.1.1 2.4.1 3.9V19h4v-7.1c0-.4 0-.7.1-1 .3-.7.8-1.6 1.9-1.6 1.4 0 2 1.2 2 2.8V19h4v-7.4c0-3.7-1.9-5.4-4.4-5.4z"/></symbol><symbol id="icon-rss" viewBox="0 0 402.041 402.04"><path d="M54.816 292.382c-15.229 0-28.169 5.331-38.831 15.988C5.33 319.026 0 331.969 0 347.197c0 15.232 5.325 28.172 15.985 38.828 10.662 10.657 23.606 15.988 38.831 15.988 15.227 0 28.168-5.331 38.828-15.988 10.656-10.656 15.986-23.596 15.986-38.828 0-15.229-5.33-28.171-15.986-38.827-10.657-10.657-23.598-15.988-38.828-15.988zm126.194-71.38c-21.51-21.698-46.158-38.97-73.948-51.816-27.79-12.85-56.914-20.511-87.366-22.985h-1.425c-4.949 0-9.042 1.619-12.275 4.854C1.997 154.477 0 158.953 0 164.472v38.543c0 4.757 1.569 8.85 4.708 12.279 3.14 3.429 7.089 5.332 11.848 5.708 43.586 4.189 80.845 21.752 111.773 52.678 30.93 30.926 48.49 68.187 52.677 111.771.382 4.764 2.284 8.712 5.712 11.847 3.427 3.148 7.517 4.72 12.275 4.72h38.545c5.517 0 9.989-1.995 13.415-5.996 3.621-3.812 5.236-8.381 4.863-13.709-2.478-30.447-10.14-59.573-22.987-87.361-12.846-27.792-30.121-52.438-51.819-73.95z"/><path d="M367.728 239.701c-20.365-45.585-48.345-86.078-83.936-121.482-35.405-35.594-75.896-63.572-121.485-83.939C116.723 13.917 68.996 2.494 19.126.02h-.855c-4.949 0-9.136 1.713-12.563 5.14C1.903 8.583 0 12.964 0 18.294v40.825c0 4.76 1.667 8.897 4.996 12.419 3.33 3.523 7.373 5.376 12.132 5.57 40.924 2.478 79.799 12.188 116.63 29.127 36.83 16.94 68.806 38.972 95.93 66.09 27.118 27.123 49.149 59.101 66.089 95.931 16.94 36.836 26.557 75.705 28.839 116.627.195 4.764 2.046 8.809 5.564 12.139 3.524 3.329 7.762 4.999 12.71 4.999h40.823c5.331 0 9.701-1.902 13.134-5.715 3.809-3.806 5.517-8.274 5.144-13.415-2.471-49.874-13.898-97.6-34.263-143.19z"/></symbol><symbol id="icon-search" viewBox="0 0 40 40"><path d="M26.804 29.01a16.313 16.313 0 01-10.426 3.746C7.333 32.756 0 25.424 0 16.378 0 7.333 7.333 0 16.378 0c9.046 0 16.378 7.333 16.378 16.378 0 3.96-1.406 7.594-3.746 10.426l10.534 10.534c.607.607.61 1.59-.004 2.202-.61.61-1.597.61-2.202.004L26.804 29.01zm-10.426.627c7.323 0 13.26-5.936 13.26-13.26 0-7.32-5.937-13.257-13.26-13.257C9.056 3.12 3.12 9.056 3.12 16.378c0 7.323 5.936 13.26 13.258 13.26z"/></symbol><symbol id="icon-soundcloud" viewBox="0 0 1000 1000"><path d="M34 672c0 2.667-3.333 4-10 4-4 0-7.333-1.333-10-4L0 602l14-72c2.667-2.667 6-4 10-4 6.667 0 10 1.333 10 4l16 72-16 70m102 38c0 5.333-4 8-12 8s-12-2.667-12-8l-12-108 12-166c0-5.333 4-8 12-8s12 2.667 12 8l14 166-14 108m102-2c0 6.667-4.667 10-14 10s-14-2.667-14-8l-10-108 10-222c0-6.667 4.667-10 14-10s14 3.333 14 10l12 222-12 106m102 0c0 6.667-5.333 10-16 10s-16-3.333-16-10l-8-106 8-224c0-6.667 5.333-10 16-10s16 3.333 16 10l10 224-10 106m102-2c0 8-6 12-18 12-10.667 0-16.667-4-18-12l-6-104 6-256c2.667-9.333 8.667-14 18-14 12 0 18 4.667 18 14l8 256-8 104m72 12c-9.333 0-14-4.667-14-14V308c0-6.667 4-11.333 12-14 24-9.333 52-14 84-14 58.667 0 109.667 19.333 153 58s67.667 86 73 142c16-6.667 32.667-10 50-10 34.667 0 64.667 12.333 90 37s38 53.667 38 87c0 34.667-12.667 64.333-38 89s-55.333 37-90 37l-358-2"/></symbol><symbol id="icon-tumblr" viewBox="0 0 20 20"><path d="M15.6 18.196c-.777.371-1.48.631-2.109.781a8.92 8.92 0 01-2.043.223c-.831 0-1.566-.107-2.205-.318a4.757 4.757 0 01-1.635-.908c-.451-.395-.764-.812-.938-1.254-.174-.443-.261-1.086-.261-1.926V8.339H4.4V5.735c.714-.234 1.326-.57 1.835-1.01a5.04 5.04 0 001.227-1.58c.308-.613.519-1.396.636-2.345h2.585v4.652h4.314v2.887h-4.314v4.719c0 1.066.056 1.752.168 2.055.111.303.319.545.622.725.403.244.863.367 1.381.367.92 0 1.836-.303 2.746-.908v2.899z"/></symbol><symbol id="icon-twitter-bull"><path d="M9.5 0C4.275 0 0 4.275 0 9.5S4.275 19 9.5 19 19 14.725 19 9.5 14.725 0 9.5 0zm3.8 7.54v.238c0 2.553-1.96 5.522-5.522 5.522-1.128 0-2.137-.297-2.969-.89h.475c.891 0 1.782-.297 2.435-.832-.832 0-1.544-.594-1.84-1.365.118 0 .237.059.355.059.178 0 .357 0 .535-.06a1.917 1.917 0 01-1.544-1.9c.238.12.534.238.89.238-.534-.356-.89-.95-.89-1.603 0-.356.119-.713.238-1.01A5.363 5.363 0 009.5 7.957c-.06-.12-.06-.298-.06-.416 0-1.07.891-1.96 1.96-1.96.534 0 1.069.238 1.425.594a3.2 3.2 0 001.247-.475c-.119.475-.475.831-.831 1.069.415-.06.771-.178 1.128-.297-.357.475-.713.831-1.069 1.069z"/></symbol><symbol id="icon-twitter" viewBox="0 0 20 20"><path d="M17.316 6.246c.008.162.011.326.011.488 0 4.99-3.797 10.742-10.74 10.742-2.133 0-4.116-.625-5.787-1.697a7.577 7.577 0 005.588-1.562 3.779 3.779 0 01-3.526-2.621 3.858 3.858 0 001.705-.065 3.779 3.779 0 01-3.028-3.703v-.047a3.766 3.766 0 001.71.473 3.775 3.775 0 01-1.168-5.041 10.716 10.716 0 007.781 3.945 3.813 3.813 0 01-.097-.861 3.773 3.773 0 013.774-3.773 3.77 3.77 0 012.756 1.191 7.602 7.602 0 002.397-.916 3.789 3.789 0 01-1.66 2.088 7.55 7.55 0 002.168-.594 7.623 7.623 0 01-1.884 1.953z"/></symbol><symbol id="icon-videoplay" viewBox="0 0 50 50"><path d="M25 0C11.215 0 0 11.215 0 25s11.215 25 25 25 25-11.215 25-25S38.785 0 25 0zm0 48C12.318 48 2 37.683 2 25S12.318 2 25 2s23 10.317 23 23-10.318 23-23 23z"/><path d="M20.593 13.218a1 1 0 00-1.616.787v21.991a1 1 0 001.616.787L34.64 25.787a.999.999 0 000-1.574L20.593 13.218zm.384 20.725V16.058L32.401 25l-11.424 8.943z"/></symbol><symbol id="icon-vimeo" viewBox="0 0 20 20"><path d="M18.91 5.84c-1.006 5.773-6.625 10.66-8.315 11.777-1.69 1.115-3.233-.447-3.792-1.631-.641-1.347-2.559-8.656-3.062-9.261-.503-.606-2.01.605-2.01.605L1 6.354s3.061-3.725 5.391-4.191c2.47-.493 2.466 3.864 3.06 6.282.574 2.342.961 3.68 1.463 3.68.502 0 1.462-1.305 2.512-3.305 1.053-2.004-.045-3.772-2.101-2.514.823-5.027 8.591-6.236 7.585-.466z"/></symbol><symbol id="icon-youtube" viewBox="0 0 20 20"><path d="M10 2.3C.172 2.3 0 3.174 0 10s.172 7.7 10 7.7 10-.874 10-7.7-.172-7.7-10-7.7zm3.205 8.034l-4.49 2.096c-.393.182-.715-.022-.715-.456V8.026c0-.433.322-.638.715-.456l4.49 2.096c.393.184.393.484 0 .668z"/></symbol></svg>